<?xml version="1.0" encoding="UTF-8"?>
<svg width="25px" height="21px" viewBox="0 0 25 21" version="1.1" xmlns="http://www.w3.org/2000/svg" xmlns:xlink="http://www.w3.org/1999/xlink">
    <!-- Generator: Sketch 40.2 (33826) - http://www.bohemiancoding.com/sketch -->
    <title>Messages</title>
    <desc>Created with Sketch.</desc>
    <defs></defs>
    <g id="Page-1" stroke="none" stroke-width="1" fill="none" fill-rule="evenodd">
        <g id="iPhone-7" transform="translate(-175.000000, -78.000000)" fill="#000000">
            <g id="Group">
                <g id="Nav-bar" transform="translate(0.000000, 59.965422)">
                    <path d="M187.501,19.373444 C181.159,19.373444 176,23.0055035 176,27.4696985 C176,28.9854398 176.606,30.4652019 177.755,31.7512296 C178.031,32.0602822 178.342,32.3619544 178.678,32.6451757 L178.852,32.7918603 L178.604,37.4008949 L183.723,35.1009903 L183.9,35.1434274 C185.091,35.4229585 186.303,35.5650304 187.501,35.5650304 C193.842,35.5650304 199,31.9338935 199,27.4696985 C199,23.0055035 193.842,19.373444 187.501,19.373444 L187.501,19.373444 Z M177.522,38.9138686 L177.83,33.1765615 C177.524,32.908101 177.24,32.6267248 176.983,32.3370456 C175.686,30.8849599 175,29.2022379 175,27.4696985 C175,22.4971812 180.607,18.450899 187.501,18.450899 C194.393,18.450899 200,22.4971812 200,27.4696985 C200,32.4431383 194.393,36.4875754 187.501,36.4875754 C186.279,36.4875754 185.046,36.3501162 183.832,36.0779654 L177.522,38.9138686 Z" id="Messages"></path>
                </g>
            </g>
        </g>
    </g>
</svg>