<?xml version="1.0" encoding="UTF-8"?>
<svg width="23px" height="23px" viewBox="0 0 23 23" version="1.1" xmlns="http://www.w3.org/2000/svg" xmlns:xlink="http://www.w3.org/1999/xlink">
    <!-- Generator: Sketch 40.2 (33826) - http://www.bohemiancoding.com/sketch -->
    <title>Fill-4-Copy</title>
    <desc>Created with Sketch.</desc>
    <defs></defs>
    <g id="Page-1" stroke="none" stroke-width="1" fill="none" fill-rule="evenodd">
        <g id="Request-Trunk-Form---Choose-Trunk-Type-Copy" transform="translate(-58.000000, -630.000000)" fill="#6E6E6E">
            <g id="Group-7" transform="translate(12.000000, 629.000000)">
                <g id="Pinterest-badge-36px" transform="translate(46.000000, 0.000000)">
                    <g id="Symbols">
                        <g>
                            <g id="Compose-Bar">
                                <g id="Pinterest-badge-36px">
                                    <g id="Group">
                                        <path d="M11.5003525,1 C5.1491064,1 0,6.14855917 0,12.5 C0,17.3721643 3.03108427,21.533599 7.30943257,23.2088903 C7.20860795,22.2993256 7.11765427,20.9032495 7.34891634,19.9104844 C7.55832133,19.0129062 8.69771006,14.1936235 8.69771006,14.1936235 C8.69771006,14.1936235 8.35363723,13.5047517 8.35363723,12.4866033 C8.35363723,10.8874617 9.28009564,9.69374617 10.4342908,9.69374617 C11.4157445,9.69374617 11.8895497,10.429859 11.8895497,11.3133354 C11.8895497,12.3004598 11.2613347,13.7755058 10.9370038,15.1426732 C10.6662579,16.2870325 11.5109285,17.2205702 12.6397413,17.2205702 C14.6837313,17.2205702 16.2553263,15.0651134 16.2553263,11.9542612 C16.2553263,9.20088903 14.2769075,7.27529123 11.4517029,7.27529123 C8.17948561,7.27529123 6.25888232,9.7297057 6.25888232,12.2666156 C6.25888232,13.2544451 6.63961865,14.3148988 7.114834,14.8909565 C7.20860795,15.0044758 7.2227093,15.1045984 7.19450661,15.2209381 C7.10707826,15.5840589 6.91318476,16.3652974 6.87511112,16.5246475 C6.82505135,16.735469 6.70801018,16.7798896 6.49014439,16.6790619 C5.05392232,16.0099326 4.15637166,13.9101778 4.15637166,12.2236052 C4.15637166,8.59592275 6.79191318,5.26437768 11.7548818,5.26437768 C15.7434475,5.26437768 18.8443334,8.10729614 18.8443334,11.9063151 C18.8443334,15.8696199 16.3448699,19.0594421 12.8766439,19.0594421 C11.7111677,19.0594421 10.6161982,18.4537707 10.2411024,17.7388105 C10.2411024,17.7388105 9.66435732,19.9344574 9.52475399,20.4724402 C9.26458416,21.4715512 8.56374728,22.7237891 8.09487753,23.4874004 C9.17081021,23.8202023 10.3144294,24 11.5003525,24 C17.8508936,24 23,18.8514408 23,12.5 C23,6.14855917 17.8508936,1 11.5003525,1" id="Fill-4-Copy"></path>
                                    </g>
                                </g>
                            </g>
                        </g>
                    </g>
                </g>
            </g>
        </g>
    </g>
</svg>