<?xml version="1.0" encoding="UTF-8"?>
<svg width="30px" height="30px" viewBox="0 0 30 30" version="1.1" xmlns="http://www.w3.org/2000/svg" xmlns:xlink="http://www.w3.org/1999/xlink">
    <!-- Generator: Sketch 45.1 (43504) - http://www.bohemiancoding.com/sketch -->
    <title>Monogram</title>
    <desc>Created with Sketch.</desc>
    <defs>
        <path d="M13.977299,9.07812646 L13.977299,10.9301795 C10.9091959,11.396815 8.40015613,13.7554723 8.40015613,16.5877596 C8.40015613,19.4180484 10.9091959,21.7752069 13.977299,22.2413427 L13.977299,24.1658392 L16.022701,24.1658392 L16.022701,22.2863076 C17.8133021,22.0904606 19.7278064,21.1701795 20.8279469,19.7392974 L19.3076347,18.559719 C18.5667135,19.5239657 17.3017018,20.1599688 16.022701,20.3383294 L16.022701,14.0632319 C15.7669009,14.0037783 15.3717096,13.9708041 15.0594536,13.9708041 C14.7022326,13.9708041 14.2330991,14.0137705 13.977299,14.0897112 L13.977299,20.2763778 C11.9313973,19.8666979 10.3636222,18.3708665 10.3636222,16.5877596 C10.3636222,15.9107884 10.6034348,15.2757845 10.9941296,14.7247151 C11.8159875,13.5656206 13.3832631,12.7802342 15.1728649,12.7802342 C16.7396409,12.7802342 18.1800156,13.3787666 19.079313,14.3939735 C19.1427635,14.4654176 19.2057143,14.5388603 19.2631694,14.6143013 L20.8279469,13.4377205 C19.7288056,12.0038407 17.8133021,11.0815613 16.022701,10.8857143 L16.022701,9.07812646 L21.1372053,9.07812646 L21.1372053,7.03272443 L8.86279469,7.03272443 L8.86279469,9.07812646 L13.977299,9.07812646 Z M15,0.0102107728 C6.73545667,0.0102107728 0.0117096019,6.73395785 0.0117096019,14.9990008 C0.0117096019,23.2640437 6.73545667,29.9877908 15,29.9877908 C23.2650429,29.9877908 29.98879,23.2640437 29.98879,14.9990008 C29.98879,6.73395785 23.2650429,0.0102107728 15,0.0102107728 L15,0.0102107728 Z M15,28.0528025 C7.80212334,28.0528025 1.94619828,22.1968774 1.94619828,14.9990008 C1.94619828,7.80112412 7.80212334,1.94519906 15,1.94519906 C22.1983763,1.94519906 28.0538017,7.80112412 28.0538017,14.9990008 C28.0538017,22.1968774 22.1983763,28.0528025 15,28.0528025 L15,28.0528025 Z" id="path-1"></path>
    </defs>
    <g id="Symbols" stroke="none" stroke-width="1" fill="none" fill-rule="evenodd">
        <g id="Nav-/-Mobile-/-Focused" transform="translate(-173.000000, -15.000000)">
            <g id="Icon-/-Monogram" transform="translate(173.000000, 15.000000)">
                <mask id="mask-2" fill="white">
                    <use xlink:href="#path-1"></use>
                </mask>
                <use id="Fill-1" fill="#022E46" fill-rule="evenodd" xlink:href="#path-1"></use>
                <g id="Color-/-Navy" mask="url(#mask-2)" fill-rule="evenodd" fill="#022D46">
                    <rect id="Color" x="0" y="0" width="30" height="30"></rect>
                </g>
            </g>
        </g>
    </g>
</svg>