<?xml version="1.0" encoding="UTF-8"?>
<svg width="34px" height="37px" viewBox="0 0 34 37" version="1.1" xmlns="http://www.w3.org/2000/svg" xmlns:xlink="http://www.w3.org/1999/xlink">
    <!-- Generator: Sketch 40.2 (33826) - http://www.bohemiancoding.com/sketch -->
    <title>Group 12</title>
    <desc>Created with Sketch.</desc>
    <defs></defs>
    <g id="Page-1" stroke="none" stroke-width="1" fill="none" fill-rule="evenodd">
        <g id="Request-Trunk-Form---Choose-Trunk-Type" transform="translate(-39.000000, -541.000000)">
            <g id="Group-13" transform="translate(11.000000, 194.000000)">
                <g id="Group-8" transform="translate(29.000000, 348.000000)">
                    <g id="Group-12">
                        <ellipse id="Oval" stroke="#B77D64" stroke-width="0.960000124" cx="16" cy="16.5405405" rx="16" ry="16.5405405"></ellipse>
                        <path d="M7.97772403,17.5135135 C6.09240095,17.5135135 7.97772403,21.4054054 7.03506249,22.3783784 C6.09240095,23.3513514 1.37909328,26.2702703 3.26441635,31.1351351 C5.14973942,36 7.97772403,36 9.8630471,36 C11.7483702,36 14.813134,35.027027 15.0588235,33.8108108 C15.3045131,32.5945946 14.5763548,32.1081081 14.5763548,32.1081081 C14.5763548,32.1081081 15.7736163,31.8648649 16,30.8918919 C16.2263837,29.9189189 15.5190163,29.1891892 15.5190163,29.1891892 C15.5190163,29.1891892 16.4616778,28.7027027 16.4616778,27.7297297 C16.4616778,26.7567568 15.5190163,26.2702703 15.5190163,26.2702703 C15.5190163,26.2702703 22.1176471,25.2972973 22.1176471,23.3513514 C22.1176471,21.4054054 9.8630471,24.3243243 9.8630471,24.3243243 C9.8630471,24.3243243 9.8630471,17.5135135 7.97772403,17.5135135 Z" id="Path-3" fill="#B77D64"></path>
                        <ellipse id="Oval-2" fill="#B77D64" cx="11.7647059" cy="10.7027027" rx="2.35294118" ry="2.91891892"></ellipse>
                        <ellipse id="Oval-2-Copy" fill="#B77D64" cx="21.1764706" cy="11.6756757" rx="2.35294118" ry="2.91891892"></ellipse>
                        <path d="M12.2352941,17.9123987 C15.0588235,16.8956251 18.8235294,17.9123987 19.7647059,19.9459459" id="Path-4" stroke="#B77D64" stroke-width="0.960000124" stroke-linecap="round"></path>
                        <path d="M7.52941176,6.08108108 C9.41176471,5.02780694 14.1176471,3.9745328 16,6.08108108" id="Path-5" stroke="#B77D64" stroke-width="0.960000124" stroke-linecap="round"></path>
                        <path d="M17.8823529,10.1730833 C19.7647059,8.14087152 24.4705882,8.14087152 26.3529412,11.1891892" id="Path-7" stroke="#B77D64" stroke-width="0.960000124" stroke-linecap="round"></path>
                    </g>
                </g>
            </g>
        </g>
    </g>
</svg>