<?xml version="1.0" encoding="utf-8"?>
<!-- Generator: Adobe Illustrator 19.1.0, SVG Export Plug-In . SVG Version: 6.00 Build 0)  -->
<!DOCTYPE svg PUBLIC "-//W3C//DTD SVG 1.1//EN" "http://www.w3.org/Graphics/SVG/1.1/DTD/svg11.dtd">
<svg version="1.1" xmlns="http://www.w3.org/2000/svg" xmlns:xlink="http://www.w3.org/1999/xlink" x="0px" y="0px"
	 viewBox="0 0 55.5 48.4" enable-background="new 0 0 55.5 48.4" xml:space="preserve">
<g id="_x31_280_C">
	<g id="Body_copy_4">
		<g id="Mobile_Experience_copy_4" display="none">
		</g>
	</g>
</g>
<g id="_x31_280_C_Wireframe">
	<g id="Body_copy_3">
		<g id="Mobile_Experience_copy_3" display="none">
		</g>
	</g>
</g>
<g id="_x31_280_B">
	<g id="Footer_copy">
	</g>
	<g id="Body_copy">
		<g id="Support_copy">
		</g>
		<g id="Pricing_copy">
		</g>
		<g id="Image_copy">
		</g>
		<g id="Mobile_Experience_copy" display="none">
		</g>
		<g id="Background_copy">
		</g>
		<g id="Tech_copy">
		</g>
		<g id="Features_copy">
			<path fill="#3A5264" d="M27.5,26.4c-0.3-1.1-0.5-2.3-0.8-3.4c-0.7-3.1-1.5-6.2-2.2-9.3c-0.3-1-1-1.7-1.9-1.7
				c-0.9,0-1.7,0.6-2,1.6c-1,3.4-2,6.8-3,10.2c-0.1,0.4-0.3,0.5-0.7,0.5c-4.6,0-9.1,0-13.7,0c-0.2,0-0.6-0.1-0.7-0.3
				c-5-8.1-1.9-19.8,7.7-23.2c6.4-2.3,13.4,0.5,16.9,6.6c0.2,0.4,0.4,0.7,0.7,1.2c0.1-0.3,0.3-0.5,0.4-0.7c2.2-4.1,5.5-6.8,10.2-7.6
				C44.2-0.8,49,1.3,52.4,6.2c3.8,5.4,4,11.1,1.1,17c-0.2,0.4-0.5,0.6-1,0.6c-4.7,0-9.4,0-14.2,0c-0.5,0-0.7-0.2-0.9-0.6
				c-0.8-2-1.6-4-2.4-6c-0.4-1.1-1.1-1.6-2-1.6c-0.9,0-1.6,0.6-2,1.6c-1,2.8-2.1,5.6-3.1,8.4c-0.1,0.2-0.2,0.5-0.3,0.7
				C27.6,26.4,27.6,26.4,27.5,26.4z"/>
			<path fill="#3A5264" d="M49.6,27.9c-0.2,0.3-0.4,0.4-0.5,0.5c-6.7,6.4-13.4,12.9-20.2,19.3c-0.8,0.8-1.6,0.8-2.4,0
				c-6.6-6.3-13.2-12.6-19.8-18.9c-0.1-0.1-0.2-0.2-0.4-0.4c0.4,0,0.7,0,1,0c3.7,0,7.4,0,11.1,0c1.5,0,2.1-0.4,2.5-1.9
				c0.4-1.4,0.8-2.9,1.3-4.5c0.1,0.4,0.2,0.6,0.3,0.9c0.9,3.6,1.7,7.2,2.6,10.8c0.1,0.3,0.1,0.6,0.3,0.9c0.4,0.7,1,1.2,1.9,1.1
				c0.9-0.1,1.5-0.5,1.8-1.4c0.7-1.9,1.4-3.9,2.2-5.8c0.6-1.7,1.2-3.3,1.9-5.1c0.4,1.1,0.8,2,1.2,2.9c0.5,1.3,1,1.6,2.5,1.6
				c4,0,8,0,12,0C49.1,27.9,49.3,27.9,49.6,27.9z"/>
		</g>
		<g id="Hero_copy">
		</g>
	</g>
	<g id="Nav_copy">
	</g>
</g>
<g id="_x31_280">
	<g id="Body">
		<g id="Pricing">
		</g>
		<g id="Mobile_Experience">
		</g>
	</g>
	<g id="Grid" display="none">
		<g display="inline">
			<defs>
				<rect id="SVGID_35_" x="-24.8" y="-971.6" width="1020" height="6808.7"/>
			</defs>
			<clipPath id="SVGID_1_">
				<use xlink:href="#SVGID_35_"  overflow="visible"/>
			</clipPath>
			<g clip-path="url(#SVGID_1_)">
				<defs>
					<rect id="SVGID_37_" x="-24.8" y="-971.6" width="1020" height="6808.7"/>
				</defs>
				<clipPath id="SVGID_3_">
					<use xlink:href="#SVGID_37_"  overflow="visible"/>
				</clipPath>
				<g clip-path="url(#SVGID_3_)">
					<defs>
						<rect id="SVGID_39_" x="-24.8" y="-971.6" width="1020" height="6808.7"/>
					</defs>
					<clipPath id="SVGID_5_">
						<use xlink:href="#SVGID_39_"  overflow="visible"/>
					</clipPath>
					<g opacity="0.1" clip-path="url(#SVGID_5_)" enable-background="new    ">
						<g>
							<defs>
								<rect id="SVGID_41_" x="15.2" y="-971.6" width="940" height="6808.7"/>
							</defs>
							<clipPath id="SVGID_7_">
								<use xlink:href="#SVGID_41_"  overflow="visible"/>
							</clipPath>
							<rect x="15.2" y="-971.6" clip-path="url(#SVGID_7_)" fill="#FF0000" width="60" height="6808.7"/>
						</g>
					</g>
				</g>
			</g>
		</g>
	</g>
</g>
<g id="_x31_280_Wireframe">
	<g id="Body_copy_2">
		<g id="Mobile_Experience_copy_2" display="none">
		</g>
	</g>
</g>
</svg>
