<?xml version="1.0" encoding="utf-8"?>
<!-- Generator: Adobe Illustrator 19.1.0, SVG Export Plug-In . SVG Version: 6.00 Build 0)  -->
<!DOCTYPE svg PUBLIC "-//W3C//DTD SVG 1.1//EN" "http://www.w3.org/Graphics/SVG/1.1/DTD/svg11.dtd">
<svg version="1.1" xmlns="http://www.w3.org/2000/svg" xmlns:xlink="http://www.w3.org/1999/xlink" x="0px" y="0px"
	 viewBox="0 0 86 86" enable-background="new 0 0 86 86" xml:space="preserve">
<g id="_x31_280_C">
	<g id="Body_copy_4">
		<g id="Mobile_Experience_copy_4" display="none">
		</g>
	</g>
</g>
<g id="_x31_280_C_Wireframe">
	<g id="Body_copy_3">
		<g id="Mobile_Experience_copy_3" display="none">
		</g>
	</g>
</g>
<g id="_x31_280_B">
	<g id="Footer_copy">
	</g>
	<g id="Body_copy">
		<g id="Support_copy">
			<g id="Location_1_">
				<circle fill="none" stroke="#36A0BD" stroke-width="2" stroke-miterlimit="10" cx="43" cy="43" r="42"/>
				<path fill="none" stroke="#36A0BD" stroke-width="2" stroke-miterlimit="10" d="M64,55.5l-8.7-8.7c-1.5-1.5-3.9-1.3-5.2,0.3
					c-1.2,1.5-2.3,2.7-3,4l-1.8-1.8l-9.5-9.5L34,38c1.2-0.7,2.5-1.9,4-3c1.7-1.3,1.8-3.7,0.3-5.2l-8.7-8.7c-1.4-1.4-3.8-1.3-5.1,0.2
					c-0.1,0-0.1,0.1-0.2,0.1c-5.5,5.5-4,15.8,3.3,23.1l1.7,1.7h0l11.3,11.3c7.3,7.3,17.6,8.8,23.1,3.3c0,0,0.1-0.1,0.1-0.2
					C65.3,59.4,65.5,57,64,55.5z"/>
			</g>
		</g>
		<g id="Pricing_copy">
		</g>
		<g id="Image_copy">
		</g>
		<g id="Mobile_Experience_copy" display="none">
		</g>
		<g id="Background_copy">
		</g>
		<g id="Tech_copy">
		</g>
		<g id="Features_copy">
		</g>
		<g id="Hero_copy">
		</g>
	</g>
	<g id="Nav_copy">
	</g>
</g>
<g id="_x31_280">
	<g id="Body">
		<g id="Pricing">
		</g>
		<g id="Mobile_Experience">
		</g>
	</g>
</g>
<g id="_x31_280_Wireframe">
	<g id="Body_copy_2">
		<g id="Mobile_Experience_copy_2" display="none">
		</g>
	</g>
</g>
</svg>
