<?xml version="1.0" encoding="utf-8"?>
<!-- Generator: Adobe Illustrator 19.1.0, SVG Export Plug-In . SVG Version: 6.00 Build 0)  -->
<!DOCTYPE svg PUBLIC "-//W3C//DTD SVG 1.1//EN" "http://www.w3.org/Graphics/SVG/1.1/DTD/svg11.dtd">
<svg version="1.1" xmlns="http://www.w3.org/2000/svg" xmlns:xlink="http://www.w3.org/1999/xlink" x="0px" y="0px"
	 viewBox="0 0 75.7 70" enable-background="new 0 0 75.7 70" xml:space="preserve">
<g id="_x31_280_C">
	<g id="Body_copy_4">
		<g id="Mobile_Experience_copy_4" display="none">
		</g>
	</g>
</g>
<g id="_x31_280_C_Wireframe">
	<g id="Body_copy_3">
		<g id="Mobile_Experience_copy_3" display="none">
		</g>
	</g>
</g>
<g id="_x31_280_B">
	<g id="Footer_copy">
	</g>
	<g id="Body_copy">
		<g id="Support_copy">
		</g>
		<g id="Pricing_copy">
		</g>
		<g id="Image_copy">
		</g>
		<g id="Mobile_Experience_copy" display="none">
		</g>
		<g id="Background_copy">
			<g>
				<path fill="#FFFFFF" d="M66,44.7c-1.2,0-2.1,1-2.1,2.1v12.6c0,3.5-2.9,6.4-6.4,6.4H10.6c-3.5,0-6.4-2.9-6.4-6.4V12.6
					c0-3.5,2.9-6.4,6.4-6.4h30c1.2,0,2.1-1,2.1-2.1s-1-2.1-2.1-2.1h-30C4.8,1.9,0,6.7,0,12.6v46.8C0,65.2,4.8,70,10.6,70h46.8
					c5.9,0,10.6-4.8,10.6-10.6V46.8C68.1,45.6,67.1,44.7,66,44.7z"/>
				<path fill="#FFFFFF" d="M75.7,18.8c0-0.1,0-0.1,0-0.2c0-0.1,0-0.1,0-0.2c0-0.1,0-0.1,0-0.2c0-0.1,0-0.1-0.1-0.2
					c0-0.1-0.1-0.1-0.1-0.2c0-0.1-0.1-0.1-0.1-0.2c0-0.1-0.1-0.1-0.1-0.2c0-0.1-0.1-0.1-0.1-0.2c0,0,0,0-0.1-0.1L58.5,0.6
					c-0.8-0.8-2.2-0.8-3,0c-0.8,0.8-0.8,2.2,0,3l11.7,11.7c-7.5-1-19.9-1.1-30.5,5.3c-8.9,5.4-14.8,14.5-17.3,27
					c-0.2,1.2,0.5,2.3,1.7,2.5c0.1,0,0.3,0,0.4,0c1,0,1.9-0.7,2.1-1.7c2.3-11.2,7.5-19.4,15.3-24.2c10.7-6.5,24-5.4,30.4-4.3
					L55.5,33.8c-0.8,0.8-0.8,2.2,0,3c0.4,0.4,1,0.6,1.5,0.6c0.5,0,1.1-0.2,1.5-0.6l16.6-16.6c0,0,0-0.1,0.1-0.1
					c0.1-0.1,0.1-0.1,0.2-0.2c0-0.1,0.1-0.1,0.1-0.2c0-0.1,0.1-0.1,0.1-0.2c0-0.1,0.1-0.1,0.1-0.2c0,0,0-0.1,0-0.1c0,0,0-0.1,0-0.1
					c0-0.1,0-0.1,0-0.2C75.7,18.9,75.7,18.8,75.7,18.8z"/>
			</g>
		</g>
		<g id="Tech_copy">
		</g>
		<g id="Features_copy">
		</g>
		<g id="Hero_copy">
		</g>
	</g>
	<g id="Nav_copy">
	</g>
</g>
<g id="_x31_280">
	<g id="Body">
		<g id="Pricing">
		</g>
		<g id="Mobile_Experience">
		</g>
	</g>
</g>
<g id="_x31_280_Wireframe">
	<g id="Body_copy_2">
		<g id="Mobile_Experience_copy_2" display="none">
		</g>
	</g>
</g>
</svg>
