<?xml version="1.0" encoding="utf-8"?>
<!-- Generator: Adobe Illustrator 19.1.0, SVG Export Plug-In . SVG Version: 6.00 Build 0)  -->
<!DOCTYPE svg PUBLIC "-//W3C//DTD SVG 1.1//EN" "http://www.w3.org/Graphics/SVG/1.1/DTD/svg11.dtd">
<svg version="1.1" xmlns="http://www.w3.org/2000/svg" xmlns:xlink="http://www.w3.org/1999/xlink" x="0px" y="0px"
	 viewBox="0 0 55.3 52.5" enable-background="new 0 0 55.3 52.5" xml:space="preserve">
<g id="_x31_280_C">
	<g id="Body_copy_4">
		<g id="Mobile_Experience_copy_4" display="none">
		</g>
	</g>
</g>
<g id="_x31_280_C_Wireframe">
	<g id="Body_copy_3">
		<g id="Mobile_Experience_copy_3" display="none">
		</g>
	</g>
</g>
<g id="_x31_280_B">
	<g id="Footer_copy">
	</g>
	<g id="Body_copy">
		<g id="Support_copy">
		</g>
		<g id="Pricing_copy">
		</g>
		<g id="Image_copy">
		</g>
		<g id="Mobile_Experience_copy" display="none">
		</g>
		<g id="Background_copy">
		</g>
		<g id="Tech_copy">
		</g>
		<g id="Features_copy">
			<g>
				<path fill="#3A5264" d="M12.2,47.2c-0.6,0-1.2-0.2-1.7-0.7l-1.3-1.2C-1.2,34.9-1.2,18.1,9.1,7.8c5-5,11.7-7.8,18.8-7.8
					c1.6,0.1,2.6,1.1,2.6,2.6c0,1.4-1.1,2.5-2.5,2.5c0,0,0,0,0,0c0,0,0,0-0.1,0c-5.7,0-11.1,2.2-15.2,6.3c-8.4,8.4-8.4,22,0,30.3
					l1.2,1.1c1,1,1.1,2.6,0.1,3.6C13.6,46.9,12.9,47.2,12.2,47.2z"/>
				<path fill="#3A5264" d="M12.2,47.2c0,0-0.1,0-0.1,0l-9.7-0.6C1,46.5-0.1,45.3,0,43.9c0.1-1.4,1.2-2.5,2.7-2.4l7,0.4v-7
					c0-1.4,1.1-2.5,2.5-2.5s2.5,1.1,2.5,2.5v9.7c0,0.7-0.3,1.4-0.8,1.8C13.5,46.9,12.9,47.2,12.2,47.2z"/>
				<path fill="#3A5264" d="M28,52.5c-1.4,0-2.5-1.1-2.5-2.5c0-1.4,1.1-2.6,2.5-2.6c5.5-0.1,10.8-2.4,14.7-6.3
					c4.1-4,6.3-9.4,6.3-15.2c0-5.7-2.2-11.1-6.3-15.2l-1.2-1.1c-1-1-1.1-2.6-0.1-3.6c1-1,2.6-1.1,3.6-0.1l1.3,1.2
					C51.2,12.3,54,18.9,54,26c0,7.1-2.8,13.7-7.8,18.8C41.3,49.6,34.9,52.4,28,52.5C28,52.5,28,52.5,28,52.5z"/>
				<path fill="#3A5264" d="M43.1,20.1c-1.4,0-2.5-1.1-2.5-2.5V7.9c0-0.7,0.3-1.4,0.8-1.9c0.5-0.5,1.2-0.7,1.9-0.7l9.7,0.6
					c1.4,0.1,2.5,1.3,2.4,2.7c-0.1,1.4-1.2,2.5-2.7,2.4l-7-0.4v7C45.6,19,44.5,20.1,43.1,20.1z"/>
			</g>
		</g>
		<g id="Hero_copy">
		</g>
	</g>
	<g id="Nav_copy">
	</g>
</g>
<g id="_x31_280">
	<g id="Body">
		<g id="Pricing">
		</g>
		<g id="Mobile_Experience">
		</g>
	</g>
	<g id="Grid" display="none">
		<g display="inline">
			<defs>
				<rect id="SVGID_35_" x="-24.9" y="-1208" width="1020" height="6808.7"/>
			</defs>
			<clipPath id="SVGID_1_">
				<use xlink:href="#SVGID_35_"  overflow="visible"/>
			</clipPath>
			<g clip-path="url(#SVGID_1_)">
				<defs>
					<rect id="SVGID_37_" x="-24.9" y="-1208" width="1020" height="6808.7"/>
				</defs>
				<clipPath id="SVGID_3_">
					<use xlink:href="#SVGID_37_"  overflow="visible"/>
				</clipPath>
				<g clip-path="url(#SVGID_3_)">
					<defs>
						<rect id="SVGID_39_" x="-24.9" y="-1208" width="1020" height="6808.7"/>
					</defs>
					<clipPath id="SVGID_5_">
						<use xlink:href="#SVGID_39_"  overflow="visible"/>
					</clipPath>
					<g opacity="0.1" clip-path="url(#SVGID_5_)" enable-background="new    ">
						<g>
							<defs>
								<rect id="SVGID_41_" x="15.1" y="-1208" width="940" height="6808.7"/>
							</defs>
							<clipPath id="SVGID_7_">
								<use xlink:href="#SVGID_41_"  overflow="visible"/>
							</clipPath>
							<rect x="15.1" y="-1208" clip-path="url(#SVGID_7_)" fill="#FF0000" width="60" height="6808.7"/>
						</g>
					</g>
				</g>
			</g>
		</g>
	</g>
</g>
<g id="_x31_280_Wireframe">
	<g id="Body_copy_2">
		<g id="Mobile_Experience_copy_2" display="none">
		</g>
	</g>
</g>
</svg>
