<?xml version="1.0" encoding="utf-8"?>
<!-- Generator: Adobe Illustrator 19.1.0, SVG Export Plug-In . SVG Version: 6.00 Build 0)  -->
<!DOCTYPE svg PUBLIC "-//W3C//DTD SVG 1.1//EN" "http://www.w3.org/Graphics/SVG/1.1/DTD/svg11.dtd">
<svg version="1.1" xmlns="http://www.w3.org/2000/svg" xmlns:xlink="http://www.w3.org/1999/xlink" x="0px" y="0px"
	 viewBox="0 0 205.7 411.8" enable-background="new 0 0 205.7 411.8" xml:space="preserve">
<g id="Background">
</g>
<g id="Front_View">
	<path id="phone_2_" fill="#1E1E1E" stroke="#B2B2B2" stroke-width="2" stroke-miterlimit="10" d="M1,388.8V24
		C1,15.7,7.6,8,15.9,6.9C34.3,4.5,67.6,1,102.8,1c35.3,0,68.6,3.5,87,5.9C198,8,204.7,15.7,204.7,24v364.8c0,5.5-4.2,12.5-9.6,13.8
		c-14.1,3.5-44.2,8.2-92.2,8.2s-78.1-4.7-92.2-8.2C5.2,401.2,1,394.3,1,388.8z"/>
	<polygon fill="#0C0C0C" points="9.8,35.9 9.8,364.6 40.2,364.6 172.5,35.9 	"/>
	<polygon fill="#0A0A0A" points="195.8,35.9 172.5,35.9 40.2,364.6 195.8,364.6 	"/>
	<circle id="Camera_1_" fill="#7A7A7A" stroke="#111111" stroke-miterlimit="10" cx="102.6" cy="21.3" r="4.9"/>
	<circle id="Mic_1_" fill="#7A7A7A" cx="34.5" cy="21.9" r="1.9"/>
	
		<line id="Left_2_" fill="none" stroke="#545454" stroke-width="2" stroke-linecap="round" stroke-miterlimit="10" x1="-0.9" y1="80.4" x2="-0.9" y2="144.4"/>
	
		<line id="Right_2_" fill="none" stroke="#545454" stroke-width="2" stroke-linecap="round" stroke-miterlimit="10" x1="206.6" y1="53.9" x2="206.6" y2="80.4"/>
</g>
<g id="Side_View">
</g>
<g id="Back_View">
</g>
</svg>
