<?xml version="1.0" encoding="utf-8"?>
<!-- Generator: Adobe Illustrator 19.1.0, SVG Export Plug-In . SVG Version: 6.00 Build 0)  -->
<!DOCTYPE svg PUBLIC "-//W3C//DTD SVG 1.1//EN" "http://www.w3.org/Graphics/SVG/1.1/DTD/svg11.dtd">
<svg version="1.1" xmlns="http://www.w3.org/2000/svg" xmlns:xlink="http://www.w3.org/1999/xlink" x="0px" y="0px"
	 viewBox="0 0 253.5 513.7" enable-background="new 0 0 253.5 513.7" xml:space="preserve">
<g id="Desktop_Version">
	<g>
		<g id="iPhone_6_7_">
			<path fill="#D4D5D8" d="M214.4,0H38.3C18,0,1.6,16.4,1.6,36.7V477c0,20.3,16.4,36.7,36.7,36.7h176.1c20.3,0,36.7-16.4,36.7-36.7
				V36.7C251.1,16.4,234.7,0,214.4,0z M245.7,474.3c0,18.2-14.8,33-33,33H40.3c-18.2,0-33-14.8-33-33V37.7c0-18.2,14.8-33,33-33
				h172.5c18.2,0,33,14.8,33,33V474.3z"/>
			<g>
				<path fill="#F6F6F6" d="M220.7,509.8H31.5C17,509.8,5.2,498,5.2,483.4V30.1C5.2,15.5,17,3.7,31.5,3.7h189.1
					c14.6,0,26.4,11.8,26.4,26.4v453.4C247,498,235.2,509.8,220.7,509.8z"/>
			</g>
			<g>
				<rect x="16.9" y="64.5" fill="#29AAE1" width="218.7" height="385.7"/>
			</g>
			<linearGradient id="SVGID_2_" gradientUnits="userSpaceOnUse" x1="135.9243" y1="498.0063" x2="115.2088" y2="462.126">
				<stop  offset="0" style="stop-color:#9D9EA0"/>
				<stop  offset="0.1146" style="stop-color:#B5B6B8"/>
				<stop  offset="0.2532" style="stop-color:#CCCDCF"/>
				<stop  offset="0.34" style="stop-color:#D4D5D8"/>
				<stop  offset="0.635" style="stop-color:#D4D5D8"/>
				<stop  offset="0.745" style="stop-color:#C8C9CB"/>
				<stop  offset="0.9463" style="stop-color:#A7A8AA"/>
				<stop  offset="1" style="stop-color:#9D9EA0"/>
			</linearGradient>
			<circle fill="url(#SVGID_2_)" cx="125.6" cy="480.1" r="20.7"/>
			<circle fill="#F6F6F6" cx="125.6" cy="480.1" r="18.1"/>
			<circle fill="#3C3E42" cx="126.2" cy="17.3" r="3.2"/>
			<circle fill="#3C3E42" cx="87.4" cy="32.8" r="4.5"/>
			<path fill="#3C3E42" d="M143.6,34.8h-34.8c-1.4,0-2.6-1.2-2.6-2.6l0,0c0-1.4,1.2-2.6,2.6-2.6h34.8c1.4,0,2.6,1.2,2.6,2.6l0,0
				C146.2,33.6,145,34.8,143.6,34.8z"/>
			<path fill="#D4D5D8" d="M249.8,110.9v34c0,0.6,0.5,1.1,1.1,1.1h1.5c0.6,0,1.1-0.5,1.1-1.1v-34c0-0.6-0.5-1.1-1.1-1.1h-1.5
				C250.3,109.8,249.8,110.3,249.8,110.9z"/>
			<path fill="#D4D5D8" d="M0.2,65.6v19.8c0,0.6,0.5,1.1,1.1,1.1h1.5c0.6,0,1.1-0.5,1.1-1.1V65.6c0-0.6-0.5-1.1-1.1-1.1H1.3
				C0.7,64.5,0.2,65,0.2,65.6z"/>
			<path fill="#D4D5D8" d="M0,110.9v35.3c0,0.6,0.5,1.1,1.1,1.1h1.5c0.6,0,1.1-0.5,1.1-1.1v-35.3c0-0.6-0.5-1.1-1.1-1.1H1.1
				C0.5,109.8,0,110.3,0,110.9z"/>
			<path fill="#D4D5D8" d="M0.2,157.5v35.3c0,0.6,0.5,1.1,1.1,1.1h1.5c0.6,0,1.1-0.5,1.1-1.1v-35.3c0-0.6-0.5-1.1-1.1-1.1H1.3
				C0.7,156.4,0.2,156.9,0.2,157.5z"/>
			<rect x="1.3" y="39.9" fill="#BBBBBB" width="3.9" height="7.7"/>
			<rect x="247.2" y="39.9" fill="#BBBBBB" width="3.9" height="7.7"/>
			<rect x="1.3" y="467.1" fill="#BBBBBB" width="3.9" height="7.7"/>
			<rect x="247.2" y="467.1" fill="#BBBBBB" width="3.9" height="7.7"/>
		</g>
	</g>
</g>
<g id="Mobile_Version">
</g>
</svg>
