<?xml version="1.0" encoding="utf-8"?>
<!-- Generator: Adobe Illustrator 19.1.0, SVG Export Plug-In . SVG Version: 6.00 Build 0)  -->
<!DOCTYPE svg PUBLIC "-//W3C//DTD SVG 1.1//EN" "http://www.w3.org/Graphics/SVG/1.1/DTD/svg11.dtd">
<svg version="1.1" xmlns="http://www.w3.org/2000/svg" xmlns:xlink="http://www.w3.org/1999/xlink" x="0px" y="0px"
	 viewBox="0 0 59.5 33.6" enable-background="new 0 0 59.5 33.6" xml:space="preserve">
<g id="_x31_280_C">
	<g id="Body_copy_4">
		<g id="Mobile_Experience_copy_4" display="none">
		</g>
	</g>
</g>
<g id="_x31_280_C_Wireframe">
	<g id="Body_copy_3">
		<g id="Mobile_Experience_copy_3" display="none">
		</g>
	</g>
</g>
<g id="_x31_280_B">
	<g id="Footer_copy">
	</g>
	<g id="Body_copy">
		<g id="Support_copy">
		</g>
		<g id="Pricing_copy">
		</g>
		<g id="Image_copy">
		</g>
		<g id="Mobile_Experience_copy" display="none">
		</g>
		<g id="Background_copy">
			<g>
				<g>
					<rect x="54.1" y="8.7" fill="#349B80" width="5.4" height="16.5"/>
					<g>
						<g>
							<path fill="#349B80" d="M50.9,2.7c1.8,0,3.2,1.4,3.2,3.2v21.9c0,1.8-1.4,3.2-3.2,3.2H5.8c-1.8,0-3.2-1.4-3.2-3.2V5.8
								c0-1.8,1.4-3.2,3.2-3.2H50.9 M50.9,0H5.8C2.6,0,0,2.6,0,5.8v21.9c0,3.2,2.6,5.8,5.8,5.8h45.1c3.2,0,5.8-2.6,5.8-5.8V5.8
								C56.8,2.6,54.1,0,50.9,0L50.9,0z"/>
						</g>
					</g>
					<path fill="#349B80" d="M47.8,27.8H8.2c-1.4,0-2.5-1.1-2.5-2.5V8.6c0-1.4,1.1-2.5,2.5-2.5h39.6c1.4,0,2.5,1.1,2.5,2.5v16.8
						C50.3,26.7,49.2,27.8,47.8,27.8z"/>
				</g>
			</g>
		</g>
		<g id="Tech_copy">
		</g>
		<g id="Features_copy">
		</g>
		<g id="Hero_copy">
		</g>
	</g>
	<g id="Nav_copy">
	</g>
</g>
<g id="_x31_280">
	<g id="Body">
		<g id="Pricing">
		</g>
		<g id="Mobile_Experience">
		</g>
	</g>
	<g id="Grid" display="none">
		<g display="inline">
			<defs>
				<rect id="SVGID_41_" x="-50.5" y="-2754.8" width="1020" height="6808.7"/>
			</defs>
			<clipPath id="SVGID_1_">
				<use xlink:href="#SVGID_41_"  overflow="visible"/>
			</clipPath>
			<g clip-path="url(#SVGID_1_)">
				<defs>
					<rect id="SVGID_43_" x="-50.5" y="-2754.8" width="1020" height="6808.7"/>
				</defs>
				<clipPath id="SVGID_3_">
					<use xlink:href="#SVGID_43_"  overflow="visible"/>
				</clipPath>
				<g clip-path="url(#SVGID_3_)">
					<defs>
						<rect id="SVGID_45_" x="-50.5" y="-2754.8" width="1020" height="6808.7"/>
					</defs>
					<clipPath id="SVGID_5_">
						<use xlink:href="#SVGID_45_"  overflow="visible"/>
					</clipPath>
					<g opacity="0.1" clip-path="url(#SVGID_5_)" enable-background="new    ">
						<g>
							<defs>
								<rect id="SVGID_47_" x="-10.5" y="-2754.8" width="940" height="6808.7"/>
							</defs>
							<clipPath id="SVGID_7_">
								<use xlink:href="#SVGID_47_"  overflow="visible"/>
							</clipPath>
							<rect x="-10.5" y="-2754.8" clip-path="url(#SVGID_7_)" fill="#FF0000" width="60" height="6808.7"/>
						</g>
					</g>
				</g>
			</g>
		</g>
	</g>
</g>
<g id="_x31_280_Wireframe">
	<g id="Body_copy_2">
		<g id="Mobile_Experience_copy_2" display="none">
		</g>
	</g>
</g>
</svg>
