<?xml version="1.0" encoding="utf-8"?>
<!-- Generator: Adobe Illustrator 19.1.0, SVG Export Plug-In . SVG Version: 6.00 Build 0)  -->
<!DOCTYPE svg PUBLIC "-//W3C//DTD SVG 1.1//EN" "http://www.w3.org/Graphics/SVG/1.1/DTD/svg11.dtd">
<svg version="1.1" xmlns="http://www.w3.org/2000/svg" xmlns:xlink="http://www.w3.org/1999/xlink" x="0px" y="0px"
	 viewBox="0 0 49 52" enable-background="new 0 0 49 52" xml:space="preserve">
<g id="_x31_280_C">
	<g id="Body_copy_4">
		<g id="Mobile_Experience_copy_4" display="none">
		</g>
	</g>
</g>
<g id="_x31_280_C_Wireframe">
	<g id="Body_copy_3">
		<g id="Mobile_Experience_copy_3" display="none">
		</g>
	</g>
</g>
<g id="_x31_280_B">
	<g id="Footer_copy">
	</g>
	<g id="Body_copy">
		<g id="Support_copy">
		</g>
		<g id="Pricing_copy">
		</g>
		<g id="Image_copy">
		</g>
		<g id="Mobile_Experience_copy" display="none">
		</g>
		<g id="Background_copy">
		</g>
		<g id="Tech_copy">
		</g>
		<g id="Features_copy">
			<g>
				<path fill="#3A5264" d="M28.5,6.1c2.4,0,4.7,0.9,6.4,2.6c3.5,3.5,3.5,9.2,0,12.8l-1,1L19.8,36.7L5.6,22.5l-1-1
					c-1.7-1.7-2.6-4-2.6-6.4s0.9-4.7,2.6-6.4c1.7-1.7,4-2.6,6.4-2.6s4.7,0.9,6.4,2.6l1,1l1.4,1.4l1.4-1.4l1-1
					C23.9,7.1,26.1,6.1,28.5,6.1 M28.5,4.1c-2.8,0-5.6,1.1-7.8,3.2l-1,1l-1-1c-2.2-2.2-5-3.2-7.8-3.2S5.4,5.2,3.2,7.4
					c-4.3,4.3-4.3,11.3,0,15.6l1,1l15.6,15.6l15.6-15.6l1-1c4.3-4.3,4.3-11.3,0-15.6C34.2,5.2,31.4,4.1,28.5,4.1L28.5,4.1z"/>
			</g>
			<g>
				<path fill="#3A5264" d="M39.5,15.1c2,0,3.9,0.8,5.4,2.2c1.4,1.4,2.2,3.4,2.2,5.4s-0.8,3.9-2.2,5.4L44,28.9L31.8,41.1L19.6,28.9
					l-0.8-0.8c-1.4-1.4-2.2-3.4-2.2-5.4c0-2,0.8-3.9,2.2-5.4c1.4-1.4,3.4-2.2,5.4-2.2c2,0,3.9,0.8,5.4,2.2l0.8,0.8l1.4,1.4l1.4-1.4
					l0.8-0.8C35.5,15.9,37.4,15.1,39.5,15.1 M39.5,13.1c-2.5,0-4.9,0.9-6.8,2.8l-0.8,0.8L31,15.9c-1.9-1.9-4.3-2.8-6.8-2.8
					s-4.9,0.9-6.8,2.8c-3.8,3.8-3.8,9.8,0,13.6l0.8,0.8L31.8,44l13.6-13.6l0.8-0.8c3.8-3.8,3.8-9.8,0-13.6
					C44.4,14,41.9,13.1,39.5,13.1L39.5,13.1z"/>
			</g>
		</g>
		<g id="Hero_copy">
		</g>
	</g>
	<g id="Nav_copy">
	</g>
</g>
<g id="_x31_280">
	<g id="Body">
		<g id="Pricing">
		</g>
		<g id="Mobile_Experience">
		</g>
	</g>
	<g id="Grid" display="none">
		<g display="inline">
			<defs>
				<rect id="SVGID_49_" x="-30" y="-1414" width="1020" height="6808.7"/>
			</defs>
			<clipPath id="SVGID_1_">
				<use xlink:href="#SVGID_49_"  overflow="visible"/>
			</clipPath>
			<g clip-path="url(#SVGID_1_)">
				<defs>
					<rect id="SVGID_51_" x="-30" y="-1414" width="1020" height="6808.7"/>
				</defs>
				<clipPath id="SVGID_3_">
					<use xlink:href="#SVGID_51_"  overflow="visible"/>
				</clipPath>
				<g clip-path="url(#SVGID_3_)">
					<defs>
						<rect id="SVGID_53_" x="-30" y="-1414" width="1020" height="6808.7"/>
					</defs>
					<clipPath id="SVGID_5_">
						<use xlink:href="#SVGID_53_"  overflow="visible"/>
					</clipPath>
					<g opacity="0.1" clip-path="url(#SVGID_5_)" enable-background="new    ">
						<g>
							<defs>
								<rect id="SVGID_55_" x="10" y="-1414" width="940" height="6808.7"/>
							</defs>
							<clipPath id="SVGID_7_">
								<use xlink:href="#SVGID_55_"  overflow="visible"/>
							</clipPath>
							<rect x="10" y="-1414" clip-path="url(#SVGID_7_)" fill="#FF0000" width="60" height="6808.7"/>
						</g>
					</g>
				</g>
			</g>
		</g>
	</g>
</g>
<g id="_x31_280_Wireframe">
	<g id="Body_copy_2">
		<g id="Mobile_Experience_copy_2" display="none">
		</g>
	</g>
</g>
</svg>
