<?xml version="1.0" encoding="utf-8"?>
<!-- Generator: Adobe Illustrator 19.1.0, SVG Export Plug-In . SVG Version: 6.00 Build 0)  -->
<!DOCTYPE svg PUBLIC "-//W3C//DTD SVG 1.1//EN" "http://www.w3.org/Graphics/SVG/1.1/DTD/svg11.dtd">
<svg version="1.1" xmlns="http://www.w3.org/2000/svg" xmlns:xlink="http://www.w3.org/1999/xlink" x="0px" y="0px"
	 viewBox="0 0 54.5 54.5" enable-background="new 0 0 54.5 54.5" xml:space="preserve">
<g id="_x31_280_C">
	<g id="Body_copy_4">
		<g id="Mobile_Experience_copy_4" display="none">
		</g>
	</g>
</g>
<g id="_x31_280_C_Wireframe">
	<g id="Body_copy_3">
		<g id="Mobile_Experience_copy_3" display="none">
		</g>
	</g>
</g>
<g id="_x31_280_B">
	<g id="Footer_copy">
	</g>
	<g id="Body_copy">
		<g id="Support_copy">
		</g>
		<g id="Pricing_copy">
		</g>
		<g id="Image_copy">
		</g>
		<g id="Mobile_Experience_copy" display="none">
		</g>
		<g id="Background_copy">
		</g>
		<g id="Tech_copy">
		</g>
		<g id="Features_copy">
			<g>
				<path fill="#3A5264" d="M27.3,15.4c-1,0-1.9,0.8-1.9,1.9V18c0,1,0.8,1.9,1.9,1.9s1.9-0.8,1.9-1.9v-0.7
					C29.1,16.2,28.3,15.4,27.3,15.4z"/>
				<path fill="#3A5264" d="M27.3,21.8c-1,0-1.9,0.8-1.9,1.9v13.6c0,1,0.8,1.9,1.9,1.9s1.9-0.8,1.9-1.9V23.6
					C29.1,22.5,28.3,21.8,27.3,21.8z"/>
				<path fill="#3A5264" d="M27.3,0C12.3,0,0,12.2,0,27.3c0,15,12.2,27.3,27.3,27.3c15,0,27.3-12.2,27.3-27.3
					C54.5,12.3,42.3,0,27.3,0z M27.3,48.8c-11.9,0-21.5-9.7-21.5-21.5S15.4,5.7,27.3,5.7s21.5,9.7,21.5,21.5S39.1,48.8,27.3,48.8z"
					/>
			</g>
		</g>
		<g id="Hero_copy">
		</g>
	</g>
	<g id="Nav_copy">
	</g>
</g>
<g id="_x31_280">
	<g id="Body">
		<g id="Pricing">
		</g>
		<g id="Mobile_Experience">
		</g>
	</g>
	<g id="Grid" display="none">
		<g display="inline">
			<defs>
				<rect id="SVGID_35_" x="-25.3" y="-1078.3" width="1020" height="6808.7"/>
			</defs>
			<clipPath id="SVGID_1_">
				<use xlink:href="#SVGID_35_"  overflow="visible"/>
			</clipPath>
			<g clip-path="url(#SVGID_1_)">
				<defs>
					<rect id="SVGID_37_" x="-25.3" y="-1078.3" width="1020" height="6808.7"/>
				</defs>
				<clipPath id="SVGID_3_">
					<use xlink:href="#SVGID_37_"  overflow="visible"/>
				</clipPath>
				<g clip-path="url(#SVGID_3_)">
					<defs>
						<rect id="SVGID_39_" x="-25.3" y="-1078.3" width="1020" height="6808.7"/>
					</defs>
					<clipPath id="SVGID_5_">
						<use xlink:href="#SVGID_39_"  overflow="visible"/>
					</clipPath>
					<g opacity="0.1" clip-path="url(#SVGID_5_)" enable-background="new    ">
						<g>
							<defs>
								<rect id="SVGID_41_" x="14.7" y="-1078.3" width="940" height="6808.7"/>
							</defs>
							<clipPath id="SVGID_7_">
								<use xlink:href="#SVGID_41_"  overflow="visible"/>
							</clipPath>
							<rect x="14.7" y="-1078.3" clip-path="url(#SVGID_7_)" fill="#FF0000" width="60" height="6808.7"/>
						</g>
					</g>
				</g>
			</g>
		</g>
	</g>
</g>
<g id="_x31_280_Wireframe">
	<g id="Body_copy_2">
		<g id="Mobile_Experience_copy_2" display="none">
		</g>
	</g>
</g>
</svg>
