<?xml version="1.0" encoding="utf-8"?>
<!-- Generator: Adobe Illustrator 19.1.0, SVG Export Plug-In . SVG Version: 6.00 Build 0)  -->
<!DOCTYPE svg PUBLIC "-//W3C//DTD SVG 1.1//EN" "http://www.w3.org/Graphics/SVG/1.1/DTD/svg11.dtd">
<svg version="1.1" id="Layer_1" xmlns="http://www.w3.org/2000/svg" xmlns:xlink="http://www.w3.org/1999/xlink" x="0px" y="0px"
	 viewBox="0 0 600.5 441" enable-background="new 0 0 600.5 441" xml:space="preserve">
<g>
	<polygon fill="#94D1E6" points="183.4,182.4 184.1,183.1 183.4,183.7 182.6,183.1 	"/>
	<path fill="#94D1E6" d="M189.9,188.9L189.9,188.9L189.9,188.9c-0.1,0-0.1-0.1-0.1-0.1L189.9,188.9z"/>
	<polygon fill="#94D1E6" points="198.4,197.4 198.3,197.4 197.4,196.5 197.4,196.5 197.5,196.5 197.5,196.5 	"/>
	<polygon fill="#94D1E6" points="183.4,182.4 184.1,183.1 183.4,183.7 182.6,183.1 	"/>
	<path fill="#94D1E6" d="M189.9,188.9L189.9,188.9L189.9,188.9c-0.1,0-0.1-0.1-0.1-0.1L189.9,188.9z"/>
	<path fill="#94D1E6" d="M201.9,200.9l-3.5-3.5l-0.9-0.9v0l0,0l0,0l0.2-0.2c0,0,0,0,0.1,0.1C199.1,197.7,200.4,199.2,201.9,200.9z"
		/>
	<path fill="#94D1E6" d="M183.3,210.2c0.1,0.1,0.2,0.2,0.3,0.3l-0.2,0.2l-0.3-0.3v0C183.2,210.3,183.2,210.2,183.3,210.2z"/>
	<path fill="#94D1E6" d="M189.9,188.9L189.9,188.9L189.9,188.9c-0.1,0-0.1-0.1-0.1-0.1L189.9,188.9z"/>
	<polygon fill="#94D1E6" points="197.5,196.5 197.4,196.5 197.4,196.5 197.5,196.5 	"/>
	<path fill="#94D1E6" d="M183.3,210.2c0.1,0.1,0.2,0.2,0.3,0.3l-0.2,0.2l-4,4c0.1-0.1,0.2-0.2,0.3-0.3c1.2-1.5,2.4-2.8,3.5-4v0
		C183.2,210.3,183.2,210.2,183.3,210.2z"/>
	<path fill="#94D1E6" d="M189.9,188.9L189.9,188.9c-0.1-0.1-0.1-0.1-0.2-0.1L189.9,188.9L189.9,188.9z"/>
	<path fill="#94D1E6" d="M186.5,213.8c0.1,0.1,0.2,0.2,0.3,0.3l-3.4-3.4l-0.3-0.3v0c0.1-0.1,0.1-0.2,0.2-0.2
		c0.1,0.1,0.2,0.2,0.3,0.3C184.5,211.5,185.5,212.6,186.5,213.8z"/>
	<path fill="#94D1E6" d="M201.9,200.9l-3.5-3.5l-0.9-0.9v0l0,0l0,0l0.2-0.2c0,0,0,0,0.1,0.1C199.1,197.7,200.4,199.2,201.9,200.9z"
		/>
	<path fill="#94D1E6" d="M194.1,225.1c0.5,0.9,0.9,1.8,1.3,2.8C195,226.9,194.5,226,194.1,225.1z M189.9,188.9l-0.1-0.1
		C189.8,188.8,189.8,188.9,189.9,188.9L189.9,188.9z M183.6,210.5c-0.1-0.1-0.2-0.2-0.3-0.3c-0.1,0.1-0.1,0.1-0.2,0.2v0
		c-1.1,1.2-2.3,2.5-3.5,4c-0.1,0.1-0.2,0.2-0.3,0.3l4-4l3.4,3.4c-0.1-0.1-0.2-0.2-0.3-0.3C185.5,212.6,184.5,211.5,183.6,210.5z
		 M184.1,183.1l-0.7-0.7l-0.7,0.7l0.7,0.6L184.1,183.1z M171.2,257.2c0.9,3,2,5.7,3.4,8.1c1.8,3.1,3.8,5.4,5.8,6.6
		C177.1,269.9,173.5,264.7,171.2,257.2z M171.1,257c0,0.1,0.1,0.2,0.1,0.2c-0.1-0.4-0.3-0.8-0.4-1.3
		C170.9,256.3,171,256.6,171.1,257z"/>
</g>
<polygon fill="#94D1E6" points="419.9,183.1 419.1,183.7 418.4,183.1 419.1,182.4 "/>
<polygon fill="#94D1E6" points="434.1,197.4 434.1,197.4 433.3,196.6 433.2,196.5 433.2,196.5 433.3,196.5 "/>
<polygon fill="#94D1E6" points="426.3,203.5 426.2,203.6 426.3,203.5 "/>
<g>
	<polygon fill="#FFFFFF" points="426.3,203.5 426.2,203.6 426.3,203.5 	"/>
	<polygon fill="#FFFFFF" points="419.1,183.7 419.9,183.1 419.1,182.4 418.4,183.1 	"/>
	<g>
		<path fill="none" d="M189.9,188.9L189.9,188.9l-0.2-0.1C189.8,188.8,189.8,188.9,189.9,188.9L189.9,188.9z"/>
		<polygon fill="none" points="183.4,183.7 184.1,183.1 183.4,182.4 182.6,183.1 		"/>
		<path fill="none" d="M196.6,231.4c-0.1-0.3-0.2-0.6-0.3-0.9c-0.1-0.3-0.2-0.6-0.3-0.9c-0.1-0.3-0.2-0.6-0.3-0.9
			c-0.1-0.3-0.2-0.6-0.3-0.9c-0.4-0.9-0.8-1.9-1.3-2.8c0,0,0,0,0,0c-0.2-0.5-0.5-0.9-0.7-1.4c-0.3-0.5-0.6-1.1-0.9-1.6
			c-0.3-0.5-0.6-1-0.9-1.5c-0.3-0.4-0.5-0.8-0.8-1.2c-0.3-0.5-0.6-1-1-1.4c-0.2-0.3-0.5-0.6-0.7-1c-0.4-0.6-0.8-1.1-1.3-1.7
			c-0.3-0.4-0.6-0.8-0.9-1.2l0,0c0,0,0,0,0,0c-0.1-0.1-0.2-0.2-0.3-0.3c-1-1.2-2-2.3-2.9-3.3c-0.1-0.1-0.2-0.2-0.3-0.3
			c-0.1,0.1-0.1,0.1-0.2,0.2v0c-1.1,1.2-2.3,2.5-3.5,4c-0.1,0.1-0.2,0.2-0.3,0.3l0,0c-0.2,0.3-0.4,0.5-0.6,0.8
			c-0.3,0.4-0.6,0.8-1,1.3c-0.2,0.3-0.5,0.6-0.7,1c-0.5,0.8-1.1,1.5-1.6,2.3c-0.1,0.2-0.3,0.4-0.4,0.6c-0.1,0.2-0.2,0.3-0.3,0.5
			c-0.1,0.1-0.1,0.2-0.2,0.3c-0.2,0.3-0.4,0.6-0.6,0.9c0,0,0,0,0,0c-0.3,0.5-0.6,1-0.8,1.5c-0.2,0.3-0.3,0.6-0.5,1
			c0,0.1-0.1,0.2-0.1,0.2c-0.2,0.3-0.4,0.7-0.5,1c-0.2,0.3-0.3,0.7-0.5,1c-0.1,0.2-0.2,0.4-0.3,0.6c-0.1,0.3-0.2,0.6-0.4,0.9
			c-0.1,0.3-0.2,0.6-0.3,0.9c-0.1,0.3-0.2,0.6-0.3,0.9c-0.1,0.3-0.2,0.6-0.3,0.9c-0.1,0.2-0.1,0.5-0.2,0.7c-0.1,0.4-0.2,0.8-0.3,1.1
			c-0.1,0.3-0.1,0.6-0.2,0.9s-0.1,0.6-0.2,0.9c0,0.2-0.1,0.5-0.1,0.7c0,0.1,0,0.2,0,0.3c0,0.2-0.1,0.3-0.1,0.5c0,0.1,0,0.3,0,0.4
			c-0.1,0.4-0.1,0.8-0.1,1.2c0,0.1,0,0.2,0,0.3c0,0.4,0,0.8,0,1.2c0,0.6,0,1.2,0,1.8c0,0.5,0,1,0.1,1.5c0,0.7,0.1,1.4,0.1,2.1
			c0.1,0.6,0.1,1.2,0.2,1.7c0.1,0.6,0.1,1.2,0.2,1.7c0.1,0.6,0.2,1.2,0.3,1.7c0.1,0.6,0.2,1.2,0.3,1.8c0.1,0.5,0.2,1,0.3,1.5
			c0.1,0.4,0.2,0.8,0.3,1.2c0,0,0,0.1,0,0.2c0.1,0.3,0.2,0.6,0.2,0.9c0.9,3.5,2.2,6.7,3.8,9.4c1.8,3.1,3.8,5.4,5.8,6.6
			c0.2,0.2,0.4,0.3,0.7,0.4c0.2,0.1,0.4,0.2,0.6,0.3c0.2,0.1,0.4,0.1,0.6,0.2c0,0,0,0,0,0c0.1,0,0.1,0,0.1,0c0.1,0,0.2,0.1,0.4,0.1
			c0,0,0,0,0.1,0c0.1,0,0.1,0,0.2,0c0.1,0,0.3,0,0.4,0c5.8,0,14.6-13.2,14.6-33.2c0-2.5-0.4-5-1.1-7.4
			C196.8,232,196.7,231.7,196.6,231.4z"/>
		<path fill="#94D1E6" d="M280,155.9C280,155.9,280,155.9,280,155.9c6.5-5.8,13.7-10.5,21.3-13.9c0,0,0,0,0,0
			C293.7,145.4,286.5,150,280,155.9C280,155.9,280,155.9,280,155.9z"/>
		<g>
			<path fill="#80E4FF" d="M85.4,294.5L55,264C30,239,30,198.2,55,173.2s65.8-25,90.9,0l23.1,23.1c0,0-0.1,0.1-0.1,0.1
				c-0.4,0.4-0.7,0.8-1.1,1.2c-0.3,0.3-0.5,0.6-0.8,0.9c-0.3,0.4-0.6,0.7-1,1.1c-0.5,0.6-1,1.2-1.5,1.8l0,0l-0.3,0.4
				c-10.1,12.4-15.5,25.5-15.5,38c0,13.3,3,25.9,8.5,35.5c6.4,11.3,15.9,17.7,26.1,17.7c10.2,0,19.7-6.5,26.1-17.7
				c5.5-9.6,8.5-22.2,8.5-35.5c0-12.7-5.6-26.1-16.1-38.8l-3.5-3.6l-0.9-0.9v0l0,0l0,0l0.2-0.2l0.1,0.1l23.1-23.1
				c13.8-13.8,32.3-20,50.3-18.6c0.2-0.2,0.3-0.3,0.5-0.5c1.2-1.2,2.4-2.3,3.6-3.4c5.2-4.7,11-8.8,17.1-12.1
				c-29.2-9.5-62.6-2.6-85.7,20.5l-23.4,23.4l0.7,0.7l-0.8,0.6l-0.7-0.6l0.7-0.7L160,159c-32.9-32.8-86.3-32.8-119.1,0
				C8,191.9,8,245.3,40.9,278.2l142.5,142.5l95.1-95.1l-14.1-14.1l-80.9,80.9L85.4,294.5z M189.9,188.9L189.9,188.9
				c-0.1,0-0.1-0.1-0.1-0.1L189.9,188.9z M169.1,235.1c0.1-0.3,0.1-0.6,0.2-0.9s0.1-0.6,0.2-0.9c0.1-0.4,0.2-0.8,0.3-1.1
				c0.1-0.2,0.1-0.5,0.2-0.7c0.1-0.3,0.2-0.6,0.3-0.9c0.1-0.3,0.2-0.6,0.3-0.9c0.1-0.3,0.2-0.6,0.3-0.9c0.1-0.3,0.2-0.6,0.4-0.9
				c0.1-0.2,0.2-0.4,0.3-0.6c0.1-0.3,0.3-0.7,0.5-1c0.1-0.3,0.3-0.7,0.5-1c0-0.1,0.1-0.2,0.1-0.2c0.2-0.3,0.3-0.7,0.5-1
				c0.3-0.5,0.6-1,0.8-1.5c0,0,0,0,0,0c0.2-0.3,0.4-0.6,0.6-0.9c0-0.1,0.1-0.2,0.2-0.3c0.1-0.2,0.2-0.4,0.3-0.5
				c0.1-0.2,0.2-0.4,0.4-0.6c0.5-0.8,1.1-1.6,1.6-2.4c0.2-0.3,0.5-0.6,0.7-1c0.3-0.4,0.6-0.9,1-1.3c0.2-0.3,0.4-0.5,0.6-0.8l0,0
				c0.1-0.1,0.2-0.2,0.3-0.3c1.2-1.5,2.4-2.8,3.5-4v0c0.1-0.1,0.1-0.2,0.2-0.2c0.1,0.1,0.2,0.2,0.3,0.3c0.9,1,1.9,2.1,2.9,3.3
				c0.1,0.1,0.2,0.2,0.3,0.3c0,0,0,0,0,0l0,0c0.3,0.4,0.6,0.8,0.9,1.2c0.4,0.5,0.9,1.1,1.3,1.7c0.2,0.3,0.5,0.6,0.7,1
				c0.3,0.5,0.7,0.9,1,1.4c0.3,0.4,0.5,0.8,0.8,1.2c0.3,0.5,0.6,1,0.9,1.5c0.3,0.5,0.6,1,0.9,1.6c0.2,0.5,0.5,0.9,0.7,1.4
				c0,0,0,0,0,0c0.5,0.9,0.9,1.8,1.3,2.8c0.1,0.3,0.2,0.6,0.3,0.9c0.1,0.3,0.2,0.6,0.3,0.9c0.1,0.3,0.2,0.6,0.3,0.9
				c0.1,0.3,0.2,0.6,0.3,0.9c0.1,0.3,0.2,0.6,0.3,0.9c0.7,2.4,1.1,4.9,1.1,7.4c0,20-8.8,33.2-14.6,33.2c-0.1,0-0.3,0-0.4,0
				c0,0-0.1,0-0.2,0c0,0,0,0-0.1,0c-0.1,0-0.2,0-0.4-0.1c0,0-0.1,0-0.1,0c0,0,0,0,0,0c-0.2,0-0.4-0.1-0.6-0.2
				c-0.2-0.1-0.4-0.2-0.6-0.3c-0.2-0.1-0.4-0.2-0.7-0.4c-2-1.2-4-3.5-5.8-6.6c-1.6-2.7-2.8-5.9-3.8-9.4c-0.1-0.3-0.2-0.6-0.2-0.9
				c0,0,0-0.1,0-0.2c-0.1-0.4-0.2-0.8-0.3-1.2c-0.1-0.5-0.2-1-0.3-1.5c-0.1-0.6-0.2-1.2-0.3-1.8c-0.1-0.6-0.2-1.1-0.3-1.7
				c-0.1-0.6-0.2-1.2-0.2-1.7c-0.1-0.6-0.1-1.2-0.2-1.7c-0.1-0.7-0.1-1.4-0.1-2.1c0-0.5-0.1-1-0.1-1.5c0-0.6,0-1.2,0-1.8
				c0-0.4,0-0.8,0-1.2c0-0.1,0-0.2,0-0.3c0-0.4,0.1-0.8,0.1-1.2c0-0.1,0-0.2,0-0.4c0-0.2,0-0.3,0.1-0.5c0-0.1,0-0.2,0-0.3
				C169,235.6,169,235.4,169.1,235.1z"/>
			<path fill="#80E4FF" d="M338.8,261.5c-2.4,4-5.1,7.9-8.2,11.5c-1.5,1.8-3.1,3.5-4.7,5.2l-10.5,10.5l-14.1,14.1l-5.8,5.8l-17,17
				l-14.1-14.1v0l17-17l5.8-5.8l14.1-14.1l10.5-10.5c1.7-1.7,3.2-3.4,4.7-5.2c2.8-3.5,5.2-7.3,7.2-11.2
				c12.2-24.1,8.2-54.3-11.9-74.4c-1.4-1.4-2.9-2.7-4.4-4c5.1-3,10.5-5.1,16.3-6.4l0.4-0.1c1.5-0.3,3.1-0.6,4.6-0.8
				C353.9,189.6,357.3,230.3,338.8,261.5z"/>
		</g>
	</g>
</g>
<polygon fill="#94D1E6" points="419.9,183.1 419.1,183.7 418.4,183.1 419.1,182.4 "/>
<path fill="#94D1E6" d="M437.6,200.9l-3.5-3.5l-0.8-0.8l-0.1-0.1l0,0l0.1,0.1l0.2-0.2h0C434.8,197.7,436.2,199.2,437.6,200.9z"/>
<path fill="#94D1E6" d="M419.4,210.5l-0.2,0.2l-0.3-0.3c0.1-0.1,0.1-0.2,0.2-0.2C419.2,210.3,419.3,210.4,419.4,210.5z"/>
<polygon fill="#94D1E6" points="426.3,203.5 426.2,203.6 426.3,203.5 "/>
<rect x="433.2" y="196.5" transform="matrix(0.7082 -0.706 0.706 0.7082 -12.3177 363.2283)" fill="#94D1E6" width="0" height="0.1"/>
<path fill="#94D1E6" d="M419.4,210.5l-4.2,4.2c0.1-0.1,0.2-0.2,0.3-0.3v0c1.2-1.5,2.4-2.8,3.5-4h0c0.1-0.1,0.1-0.2,0.2-0.2
	C419.2,210.3,419.3,210.4,419.4,210.5z"/>
<path fill="#94D1E6" d="M422.5,214.1l-3.4-3.4l-0.3-0.3c0.1-0.1,0.1-0.2,0.2-0.2c0.1,0.1,0.2,0.2,0.3,0.3c0.9,1,1.9,2.1,2.9,3.3
	C422.4,213.9,422.5,214,422.5,214.1z"/>
<polygon fill="#94D1E6" points="426.3,203.5 426.2,203.6 426.3,203.5 "/>
<path fill="#94D1E6" d="M437.6,200.9l-3.5-3.5l-0.8-0.8l-0.1-0.1l0,0l0.1,0.1l0.2-0.2h0C434.8,197.7,436.2,199.2,437.6,200.9z"/>
<path fill="#94D1E6" d="M426.3,203.5L426.3,203.5L426.3,203.5L426.3,203.5z M399.9,201.7L399.9,201.7l0.1,0.1L399.9,201.7z
	 M422.3,213.8c-1-1.2-2-2.3-2.9-3.3c-0.1-0.1-0.2-0.2-0.3-0.3c-0.1,0.1-0.1,0.1-0.2,0.2h0c-1.1,1.2-2.3,2.5-3.5,4v0
	c-0.1,0.1-0.2,0.2-0.3,0.3l4-4l3.4,3.4C422.5,214,422.4,213.9,422.3,213.8z M419.1,182.4l-0.7,0.7l0.7,0.6l0.8-0.6L419.1,182.4z
	 M407.4,258.5c0.2,0.6,0.4,1.2,0.7,1.8c0.2,0.6,0.5,1.2,0.7,1.8c0.1,0.2,0.2,0.4,0.3,0.6c0.4,0.9,0.9,1.8,1.4,2.6
	c1.9,3.4,4.1,5.8,6.2,6.9C413.4,270.5,409.8,265.6,407.4,258.5z"/>
<circle fill="none" stroke="#FFFFFF" stroke-width="20" stroke-miterlimit="10" cx="419.1" cy="72.7" r="52.4"/>
<circle fill="none" stroke="#80E4FF" stroke-width="20" stroke-miterlimit="10" cx="183.3" cy="72.7" r="52.4"/>
<g>
	<g>
		<polygon fill="#FFFFFF" points="426.3,203.5 426.2,203.6 426.3,203.5 		"/>
		<polygon fill="#FFFFFF" points="419.1,183.7 419.9,183.1 419.1,182.4 418.4,183.1 		"/>
		<polygon fill="#FFFFFF" points="301.3,302.8 301.3,302.8 315.4,288.7 315.4,288.7 315.4,288.7 		"/>
		<path fill="#FFFFFF" d="M561.6,159c-16.4-16.4-38-24.6-59.6-24.6c-21.6,0-43.2,8.2-59.6,24.6l-23.4,23.4l0.7,0.7l-0.8,0.6
			l-0.7-0.6l0.7-0.7L395.8,159c-16.4-16.4-38-24.6-59.6-24.6c-11.9,0-23.9,2.5-34.9,7.5c-7.6,3.5-14.8,8.1-21.3,13.9
			c-1.1,1-2.3,2.1-3.4,3.2c-32.8,32.8-32.8,86.3,0,119.1l5.5,5.5l0,0l14.1-14.1l0,0l0,0l-5.5-5.5c-25.1-25-25.1-65.8,0-90.9
			c3.2-3.2,6.8-6.1,10.5-8.5c6.6-4.3,13.8-7.2,21.2-8.8h0c4.5-1,9.1-1.5,13.7-1.5c16.4,0,32.9,6.3,45.4,18.8l23.1,23.1
			c-1.4,1.5-2.9,3.2-4.5,5l0,0l-0.3,0.4l0.1,0.1l-0.1-0.1c-10.1,12.4-15.5,25.5-15.5,38c0,13.3,3,25.9,8.5,35.5
			c6.4,11.3,15.9,17.7,26.1,17.7c10.2,0,19.7-6.5,26.1-17.7c5.5-9.6,8.5-22.2,8.5-35.5c0-12.7-5.6-26.1-16.1-38.8l-3.5-3.5l-0.8-0.8
			l-0.1-0.1l0,0l0.1,0.1l0.2-0.2h0l0.6-0.6l22.6-22.6c12.5-12.5,29-18.8,45.4-18.8c16.4,0,32.9,6.3,45.4,18.8
			c25.1,25,25.1,65.8,0,90.9l-30.4,30.4l-97.9,97.9l-98.8-98.8l0,0l-14.1,14.1l112.9,112.9l142.5-142.5
			C594.5,245.3,594.5,191.9,561.6,159z M426.3,203.5L426.3,203.5L426.3,203.5L426.3,203.5z M433.3,235c0,0.3,0.1,0.6,0.1,0.8
			c0,0,0,0,0,0.1c0.1,0.6,0.2,1.2,0.2,1.8c0.1,0.6,0.1,1.3,0.1,1.9c0,20-8.8,33.2-14.7,33.2c-0.1,0-0.3,0-0.4,0c-0.1,0-0.1,0-0.2,0
			c0,0-0.1,0-0.1,0c-0.1,0-0.2,0-0.3-0.1c-0.1,0-0.1,0-0.2,0c-0.1,0-0.2-0.1-0.3-0.1c-0.1,0-0.2-0.1-0.3-0.1
			c-0.3-0.1-0.5-0.2-0.8-0.4c-2.1-1.1-4.3-3.5-6.2-6.9c-0.5-0.8-0.9-1.7-1.4-2.6c-0.1-0.2-0.2-0.4-0.3-0.6c-0.2-0.6-0.5-1.1-0.7-1.8
			c-0.2-0.6-0.4-1.2-0.7-1.8c-0.1-0.2-0.1-0.4-0.2-0.7c0,0,0-0.1,0-0.1c-0.1-0.3-0.2-0.5-0.3-0.8v0c-0.2-0.5-0.3-1-0.4-1.5
			c-0.1-0.3-0.2-0.7-0.3-1c-0.1-0.3-0.2-0.7-0.2-1c-0.2-1-0.4-2-0.6-3c-0.1-0.6-0.2-1.1-0.3-1.7c0,0,0,0,0-0.1
			c-0.2-1.1-0.3-2.2-0.4-3.4c-0.1-0.7-0.1-1.4-0.1-2.1c0-0.5-0.1-1-0.1-1.5c0-0.6,0-1.2,0-1.8c0-0.4,0-0.8,0-1.2c0-0.1,0-0.2,0-0.3
			c0-0.4,0.1-0.8,0.1-1.2c0-0.1,0-0.2,0-0.4c0-0.2,0-0.3,0.1-0.5c0-0.1,0-0.2,0-0.3c0-0.2,0.1-0.5,0.1-0.7c0.1-0.4,0.1-0.7,0.2-1.1
			c0.1-0.4,0.2-0.7,0.2-1.1c0,0,0,0,0,0c0.1-0.3,0.2-0.7,0.3-1c0.1-0.4,0.2-0.7,0.3-1.1c0.1-0.3,0.2-0.5,0.3-0.8
			c0.1-0.4,0.3-0.8,0.4-1.1c0.2-0.5,0.4-1,0.6-1.5c0.1-0.3,0.2-0.5,0.4-0.8c0.2-0.4,0.3-0.7,0.5-1.1c0.2-0.4,0.4-0.8,0.6-1.2
			c0-0.1,0.1-0.1,0.1-0.2c0.2-0.4,0.5-0.9,0.7-1.3c0-0.1,0.1-0.2,0.1-0.2c0.2-0.3,0.3-0.6,0.5-0.8c0.2-0.3,0.4-0.6,0.6-0.9
			c0.3-0.5,0.6-1,0.9-1.5c0.3-0.5,0.6-0.9,0.9-1.4c0.3-0.4,0.6-0.9,0.9-1.3c0.6-0.7,1.1-1.4,1.6-2.1l0,0c0.1-0.1,0.2-0.2,0.3-0.3v0
			c1.2-1.5,2.4-2.8,3.5-4h0c0.1-0.1,0.1-0.2,0.2-0.2c0.1,0.1,0.2,0.2,0.3,0.3c0.9,1,1.9,2.1,2.9,3.3c0.1,0.1,0.2,0.2,0.3,0.3l0,0
			c0.4,0.5,0.8,0.9,1.1,1.4c0.3,0.3,0.5,0.7,0.8,1.1c0.3,0.3,0.5,0.7,0.8,1c0.3,0.4,0.6,0.9,0.9,1.3c0.2,0.3,0.4,0.5,0.6,0.8
			c0,0.1,0.1,0.1,0.1,0.2c0.2,0.3,0.3,0.5,0.5,0.8c0,0.1,0.1,0.1,0.1,0.2c0.2,0.3,0.4,0.6,0.6,0.9c0.1,0.1,0.1,0.1,0.1,0.2
			c0.1,0.1,0.1,0.2,0.2,0.3c0.3,0.4,0.5,0.9,0.7,1.3c0,0,0,0,0,0c0.3,0.5,0.6,1.1,0.9,1.6c0.1,0.3,0.3,0.6,0.4,0.8
			c0.1,0.3,0.3,0.6,0.4,0.9c0.1,0.3,0.2,0.6,0.4,0.8c0.1,0.3,0.2,0.6,0.4,0.9c0.1,0.3,0.2,0.6,0.3,0.9c0.2,0.6,0.4,1.2,0.6,1.8
			c0.1,0.3,0.2,0.6,0.3,0.9C432.9,233.2,433.1,234.1,433.3,235z"/>
	</g>
</g>
</svg>
