<?xml version="1.0" encoding="utf-8"?>
<!-- Generator: Adobe Illustrator 19.1.0, SVG Export Plug-In . SVG Version: 6.00 Build 0)  -->
<!DOCTYPE svg PUBLIC "-//W3C//DTD SVG 1.1//EN" "http://www.w3.org/Graphics/SVG/1.1/DTD/svg11.dtd">
<svg version="1.1" xmlns="http://www.w3.org/2000/svg" xmlns:xlink="http://www.w3.org/1999/xlink" x="0px" y="0px"
	 viewBox="0 0 49 52" enable-background="new 0 0 49 52" xml:space="preserve">
<g id="_x31_280_C">
	<g id="Body_copy_4">
		<g id="Mobile_Experience_copy_4" display="none">
		</g>
	</g>
</g>
<g id="_x31_280_C_Wireframe">
	<g id="Body_copy_3">
		<g id="Mobile_Experience_copy_3" display="none">
		</g>
	</g>
</g>
<g id="_x31_280_B">
	<g id="Footer_copy">
	</g>
	<g id="Body_copy">
		<g id="Support_copy">
		</g>
		<g id="Pricing_copy">
		</g>
		<g id="Image_copy">
		</g>
		<g id="Mobile_Experience_copy" display="none">
		</g>
		<g id="Background_copy">
		</g>
		<g id="Tech_copy">
		</g>
		<g id="Features_copy">
			<g>
				<g>
					<path fill="#3A5264" d="M30.3,6.7l-0.8,1.9c-0.1,0.3,0,0.7,0.4,0.9c5.2,2.4,8.6,7.5,8.9,13.2c0,0.4,0.3,0.7,0.7,0.7l2,0
						c0.4,0,0.7-0.3,0.7-0.7c-0.3-7-4.6-13.3-11-16.2C30.8,6.2,30.4,6.4,30.3,6.7z"/>
					<path fill="#3A5264" d="M32.9,0.4l-0.8,1.9c-0.1,0.3,0,0.7,0.4,0.9c7.7,3.4,12.8,11,13.1,19.4c0,0.4,0.3,0.7,0.7,0.7l2,0
						c0.4,0,0.7-0.3,0.7-0.7C48.6,12.8,42.7,4,33.8,0.1C33.4-0.1,33,0.1,32.9,0.4z"/>
				</g>
				<path fill="#3A5264" d="M39.6,36.9L36,33.2v-6.8c0-6.8-4-12.7-10.1-15.1c-0.6-2.7-3-4.8-5.9-4.8c-2.9,0-5.3,2-5.9,4.8
					c-6,2.4-10.1,8.2-10.1,15.1v6.8l-3.6,3.7C0.2,37.2,0,37.6,0,38.1v5.2C0,44.2,0.8,45,1.7,45H13c0,3.7,3.3,7,7,7s7-3.3,7-7h11.3
					c0.9,0,1.7-0.8,1.7-1.7v-5.2C40.1,37.6,39.9,37.2,39.6,36.9z M20,48.6c-2,0-3.6-1.9-3.7-3.6h7.3C23.7,46.7,22,48.6,20,48.6z
					 M36.7,41.6H3.4v-2.8l4.1-4.2c0-4,0-7.5,0-8.2c0-6.2,4.1-11.3,9.9-12.5c0-0.6,0-1.1,0-1.2c0-1.5,1.2-2.7,2.6-2.7
					c1.5,0,2.6,1.3,2.6,2.7c0,0.1,0,0.6,0,1.2c5.8,1.2,9.9,6.3,9.9,12.5c0,0.9,0,4.2,0,8.2l4.1,4.2V41.6z"/>
			</g>
		</g>
		<g id="Hero_copy">
		</g>
	</g>
	<g id="Nav_copy">
	</g>
</g>
<g id="_x31_280">
	<g id="Body">
		<g id="Pricing">
		</g>
		<g id="Mobile_Experience">
		</g>
	</g>
	<g id="Grid" display="none">
		<g display="inline">
			<defs>
				<rect id="SVGID_35_" x="-30.9" y="-1307.6" width="1020" height="6808.7"/>
			</defs>
			<clipPath id="SVGID_1_">
				<use xlink:href="#SVGID_35_"  overflow="visible"/>
			</clipPath>
			<g clip-path="url(#SVGID_1_)">
				<defs>
					<rect id="SVGID_37_" x="-30.9" y="-1307.6" width="1020" height="6808.7"/>
				</defs>
				<clipPath id="SVGID_3_">
					<use xlink:href="#SVGID_37_"  overflow="visible"/>
				</clipPath>
				<g clip-path="url(#SVGID_3_)">
					<defs>
						<rect id="SVGID_39_" x="-30.9" y="-1307.6" width="1020" height="6808.7"/>
					</defs>
					<clipPath id="SVGID_5_">
						<use xlink:href="#SVGID_39_"  overflow="visible"/>
					</clipPath>
					<g opacity="0.1" clip-path="url(#SVGID_5_)" enable-background="new    ">
						<g>
							<defs>
								<rect id="SVGID_41_" x="9.1" y="-1307.6" width="940" height="6808.7"/>
							</defs>
							<clipPath id="SVGID_7_">
								<use xlink:href="#SVGID_41_"  overflow="visible"/>
							</clipPath>
							<rect x="9.1" y="-1307.6" clip-path="url(#SVGID_7_)" fill="#FF0000" width="60" height="6808.7"/>
						</g>
					</g>
				</g>
			</g>
		</g>
	</g>
</g>
<g id="_x31_280_Wireframe">
	<g id="Body_copy_2">
		<g id="Mobile_Experience_copy_2" display="none">
		</g>
	</g>
</g>
</svg>
