<?xml version="1.0" encoding="utf-8"?>
<!-- Generator: Adobe Illustrator 19.1.0, SVG Export Plug-In . SVG Version: 6.00 Build 0)  -->
<!DOCTYPE svg PUBLIC "-//W3C//DTD SVG 1.1//EN" "http://www.w3.org/Graphics/SVG/1.1/DTD/svg11.dtd">
<svg version="1.1" id="Layer_1" xmlns="http://www.w3.org/2000/svg" xmlns:xlink="http://www.w3.org/1999/xlink" x="0px" y="0px"
	 viewBox="0 0 600 600" enable-background="new 0 0 600 600" xml:space="preserve">
<path fill="#3A5264" d="M300,267.2c109.9,0,189.4-3.3,189.4,13.3v-70.7c0-16.6-79.5-13.3-189.4-13.3s-189.4-3.3-189.4,13.3v70.7
	C110.6,263.9,190.1,267.2,300,267.2z"/>
<path fill="#6AC4D3" stroke="#3A5264" stroke-width="5.3175" stroke-linecap="round" stroke-linejoin="round" stroke-miterlimit="10" d="
	M446.3,145.1L446.3,145.1c-30.2-35.4-81.7-37.6-114.4-4.9l-31.9,32l-31.9-32c-32.7-32.8-84.2-30.6-114.4,4.9v0
	c-30.2,35.4-28.2,91.2,4.5,124L300,411.2l141.8-142.1C474.5,236.3,476.5,180.5,446.3,145.1z"/>
<g>
	<path fill="#BBC4C3" d="M385.4,299.2c-11.9,0-24.6-0.1-38.1-0.1c-15.1-0.1-30.8-0.1-47.3-0.1c-16.5,0-32.1,0.1-47.3,0.1
		c-13.5,0.1-26.2,0.1-38.1,0.1c-27.8,0-56.2-0.3-75.5-2.3c-23.4-2.5-25.9-6.8-25.9-8.6v-70.7c4.8,2.8,13.1,4.7,25.3,6
		c19.6,2.1,48.1,2.3,76.1,2.3c11.9,0,24.7-0.1,38.1-0.1c15.1-0.1,30.8-0.1,47.2-0.1c16.5,0,32.1,0.1,47.2,0.1
		c13.5,0.1,26.2,0.1,38.1,0.1c56.8,0,89.4-1.4,101.4-8.4v70.8c0,1.8-2.5,6.1-25.9,8.6C441.6,298.9,413.2,299.2,385.4,299.2z"/>
	<path fill="#3A5264" d="M484.1,221.7v66.5c-0.2,0.3-1.5,1.7-6.7,3.2c-4.8,1.4-11.7,2.5-20.5,3.2c-19.2,1.7-46.9,1.9-71.6,1.9
		c-11.9,0-24.6-0.1-38.1-0.1c-15.1-0.1-30.8-0.1-47.3-0.1c-16.5,0-32.1,0.1-47.3,0.1c-13.5,0.1-26.2,0.1-38.1,0.1
		c-24.6,0-52.4-0.2-71.6-1.9c-8.8-0.8-15.7-1.9-20.5-3.2c-5.2-1.5-6.4-2.9-6.7-3.2v-66.5c6.2,2.4,14.3,3.7,22.4,4.5
		c19.7,2.1,48.3,2.4,76.4,2.4c12,0,24.7-0.1,38.1-0.1c15.1-0.1,30.7-0.1,47.2-0.1c16.5,0,32.1,0.1,47.2,0.1
		c13.5,0.1,26.2,0.1,38.1,0.1c28,0,56.7-0.3,76.4-2.4C469.8,225.3,477.9,224.1,484.1,221.7 M489.4,209.6
		c0,11.9-40.7,13.6-104.1,13.6c-25.2,0-54.1-0.3-85.4-0.3c-31.3,0-60.1,0.3-85.4,0.3c-63.4,0-104.1-1.7-104.1-13.6v78.6
		c0,11.9,40.7,13.6,104.1,13.6c25.2,0,54.1-0.3,85.4-0.3c31.3,0,60.1,0.3,85.4,0.3c63.4,0,104.1-1.7,104.1-13.6V209.6L489.4,209.6z"
		/>
</g>
<g>
	<defs>
		<rect id="SVGID_1_" x="116" y="230.2" width="368.1" height="64.4"/>
	</defs>
	<clipPath id="SVGID_2_">
		<use xlink:href="#SVGID_1_"  overflow="visible"/>
	</clipPath>
	<g clip-path="url(#SVGID_2_)">
		
			<polyline fill="none" stroke="#F5F7F7" stroke-width="3.9881" stroke-linecap="round" stroke-linejoin="round" stroke-miterlimit="10" points="
			252.2,269.9 269.6,269.9 274.8,262.5 280.4,273.5 290.8,241.9 298.3,288.5 303.5,267.9 305.3,272.2 309.4,260 314.2,269.9 
			341.4,269.9 		"/>
		
			<polyline fill="none" stroke="#F5F7F7" stroke-width="3.9881" stroke-linecap="round" stroke-linejoin="round" stroke-miterlimit="10" points="
			163,269.9 180.5,269.9 185.7,262.5 191.2,273.5 201.6,241.9 209.1,288.5 214.3,267.9 216.1,272.2 220.2,260 225.1,269.9 
			252.2,269.9 		"/>
		
			<polyline fill="none" stroke="#F5F7F7" stroke-width="3.9881" stroke-linecap="round" stroke-linejoin="round" stroke-miterlimit="10" points="
			341.4,269.9 358.8,269.9 364,262.5 369.6,273.5 380,241.9 387.4,288.5 392.6,267.9 394.5,272.2 398.6,260 403.4,269.9 
			430.5,269.9 		"/>
		
			<path fill="none" stroke="#F5F7F7" stroke-width="3.9881" stroke-linecap="round" stroke-linejoin="round" stroke-miterlimit="10" d="
			M169.5,269.9c0,0-4.4,0-21.7,0s-37.2-8.1-37.2-18.4"/>
		
			<path fill="none" stroke="#F5F7F7" stroke-width="3.9881" stroke-linecap="round" stroke-linejoin="round" stroke-miterlimit="10" d="
			M430.5,269.9c0,0,4.4,0,21.7,0c17.3,0,37.2-8.1,37.2-18.4"/>
	</g>
</g>
<text transform="matrix(1 0 0 1 189.0063 480.5582)" fill="#3A5264" font-family="'BrandonGrotesque-Bold'" font-size="54.5566px">Pulseband</text>
</svg>
