<?xml version="1.0" encoding="utf-8"?>
<!-- Generator: Adobe Illustrator 19.1.0, SVG Export Plug-In . SVG Version: 6.00 Build 0)  -->
<!DOCTYPE svg PUBLIC "-//W3C//DTD SVG 1.1//EN" "http://www.w3.org/Graphics/SVG/1.1/DTD/svg11.dtd">
<svg version="1.1" id="Layer_1" xmlns="http://www.w3.org/2000/svg" xmlns:xlink="http://www.w3.org/1999/xlink" x="0px" y="0px"
	 viewBox="0 0 600 510.4" enable-background="new 0 0 600 510.4" xml:space="preserve">
<path fill="#3A5264" d="M300,264.1c168.4,0,290.2-5.1,290.2,20.4V176.3c0-25.4-121.9-20.4-290.2-20.4S9.8,150.8,9.8,176.3v108.2
	C9.8,259.1,131.6,264.1,300,264.1z"/>
<path fill="#6AC4D3" stroke="#3A5264" stroke-width="18" stroke-linecap="round" stroke-linejoin="round" stroke-miterlimit="10" d="
	M524.2,77L524.2,77C477.8,22.8,399,19.4,348.9,69.6l-48.9,49l-48.9-49C201,19.4,122.2,22.8,75.8,77v0c-46.3,54.3-43.2,139.8,6.9,190
	L300,484.7L517.3,267C567.4,216.8,570.5,131.3,524.2,77z"/>
<g>
	<path fill="#BBC4C3" d="M430.8,310.6c-18.3,0-37.7-0.1-58.4-0.2c-23.2-0.1-47.1-0.2-72.4-0.2c-25.3,0-49.2,0.1-72.4,0.2
		c-20.6,0.1-40.1,0.2-58.4,0.2c-42.6,0-86-0.4-115.5-3.5c-37.1-3.9-37.5-10.7-37.5-10.8V191.8c9.5,4.2,22.9,6.3,36.1,7.7
		c30.1,3.2,73.9,3.6,116.8,3.6c18.3,0,37.8-0.1,58.4-0.2c23.2-0.1,47.1-0.2,72.4-0.2c25.2,0,49.2,0.1,72.4,0.2
		c20.6,0.1,40.1,0.2,58.4,0.2c82.8,0,131.6-1.9,153-11.3v104.5c0,0.1-0.4,6.9-37.5,10.8C516.8,310.2,473.3,310.6,430.8,310.6z"/>
	<path fill="#3A5264" d="M577.2,201v92.8c-1.5,0.8-4.6,2.2-10.9,3.6c-7.7,1.7-18.2,3.1-31.4,4.2c-28.9,2.2-68.9,2.5-104.2,2.5
		c-18.3,0-37.7-0.1-58.3-0.2c-23.2-0.1-47.2-0.2-72.4-0.2c-25.3,0-49.3,0.1-72.4,0.2c-20.6,0.1-40.1,0.2-58.3,0.2
		c-35.3,0-75.3-0.3-104.2-2.5c-13.2-1-23.8-2.4-31.4-4.2c-6.2-1.4-9.4-2.8-10.9-3.6V201c25.4,7,71.4,8.7,146.5,8.7
		c18.3,0,37.8-0.1,58.5-0.2c23.2-0.1,47.1-0.2,72.3-0.2c25.2,0,49.2,0.1,72.3,0.2c20.6,0.1,40.1,0.2,58.4,0.2
		C505.8,209.7,551.8,208,577.2,201 M590.2,175.9c0,18.2-62.4,20.8-159.5,20.8c-38.7,0-82.8-0.4-130.8-0.4
		c-47.9,0-92.1,0.4-130.8,0.4c-97.1,0-159.5-2.6-159.5-20.8v120.5c0,18.2,62.4,20.8,159.5,20.8c38.7,0,82.8-0.4,130.8-0.4
		c47.9,0,92.1,0.4,130.8,0.4c97.1,0,159.5-2.6,159.5-20.8V175.9L590.2,175.9z"/>
</g>
<g>
	<defs>
		<rect id="SVGID_3_" x="27" y="207.4" width="546.1" height="98.6"/>
	</defs>
	<clipPath id="SVGID_2_">
		<use xlink:href="#SVGID_3_"  overflow="visible"/>
	</clipPath>
	<g clip-path="url(#SVGID_2_)">
		
			<polyline fill="none" stroke="#F5F7F7" stroke-width="10" stroke-linecap="round" stroke-linejoin="round" stroke-miterlimit="10" points="
			226.7,264.3 253.5,264.3 261.5,252.9 270,269.7 285.9,221.3 297.3,292.8 305.3,261.1 308.1,267.8 314.4,249 321.8,264.3 
			363.4,264.3 		"/>
		
			<polyline fill="none" stroke="#F5F7F7" stroke-width="10" stroke-linecap="round" stroke-linejoin="round" stroke-miterlimit="10" points="
			90.1,264.3 116.9,264.3 124.8,252.9 133.4,269.7 149.3,221.3 160.7,292.8 168.7,261.1 171.5,267.8 177.8,249 185.2,264.3 
			226.7,264.3 		"/>
		
			<polyline fill="none" stroke="#F5F7F7" stroke-width="10" stroke-linecap="round" stroke-linejoin="round" stroke-miterlimit="10" points="
			363.4,264.3 390.1,264.3 398.1,252.9 406.6,269.7 422.6,221.3 434,292.8 441.9,261.1 444.8,267.8 451,249 458.4,264.3 500,264.3 
					"/>
		<path fill="none" stroke="#F5F7F7" stroke-width="10" stroke-linecap="round" stroke-linejoin="round" stroke-miterlimit="10" d="
			M100,264.3c0,0-6.7,0-33.2,0S9.8,251.8,9.8,236"/>
		<path fill="none" stroke="#F5F7F7" stroke-width="10" stroke-linecap="round" stroke-linejoin="round" stroke-miterlimit="10" d="
			M500,264.3c0,0,6.7,0,33.2,0c26.5,0,57.1-12.4,57.1-28.2"/>
	</g>
</g>
</svg>
