<?xml version="1.0" encoding="utf-8"?>
<!-- Generator: Adobe Illustrator 19.1.0, SVG Export Plug-In . SVG Version: 6.00 Build 0)  -->
<!DOCTYPE svg PUBLIC "-//W3C//DTD SVG 1.1//EN" "http://www.w3.org/Graphics/SVG/1.1/DTD/svg11.dtd">
<svg version="1.1" xmlns="http://www.w3.org/2000/svg" xmlns:xlink="http://www.w3.org/1999/xlink" x="0px" y="0px"
	 viewBox="0 0 75 75" enable-background="new 0 0 75 75" xml:space="preserve">
<g id="_x31_280_C">
	<g id="Body_copy_4">
		<g id="Mobile_Experience_copy_4" display="none">
		</g>
	</g>
</g>
<g id="_x31_280_C_Wireframe">
	<g id="Body_copy_3">
		<g id="Mobile_Experience_copy_3" display="none">
		</g>
	</g>
</g>
<g id="_x31_280_B">
	<g id="Footer_copy">
	</g>
	<g id="Body_copy">
		<g id="Support_copy">
		</g>
		<g id="Pricing_copy">
		</g>
		<g id="Image_copy">
		</g>
		<g id="Mobile_Experience_copy" display="none">
		</g>
		<g id="Background_copy">
			<g>
				<g>
					<path fill="none" stroke="#EDBA0E" stroke-width="5" stroke-miterlimit="10" d="M7.2,19.9c-3,5.2-4.7,11.2-4.7,17.6
						c0,19.3,15.7,35,35,35"/>
					<path fill="none" stroke="#06F3AF" stroke-width="5" stroke-miterlimit="10" d="M67.8,20C61.8,9.5,50.5,2.5,37.5,2.5
						c-12.9,0-24.2,7-30.3,17.4"/>
					<path fill="none" stroke="#F6325F" stroke-width="5" stroke-miterlimit="10" d="M37.6,72.5c19.3,0,34.9-15.7,34.9-35
						c0-6.4-1.7-12.4-4.7-17.5"/>
				</g>
				<g>
					<path fill="#FFFFFF" d="M37.3,47.2c1.5,0,2.6,1.1,2.6,2.6c0,1.4-1.1,2.6-2.6,2.6c-1.4,0-2.6-1.2-2.6-2.6
						C34.7,48.3,35.8,47.2,37.3,47.2z M36.1,38.8L35.3,26v-5.2c0-0.5,0.4-0.9,0.9-0.9h2.3c0.5,0,0.9,0.4,0.9,0.9v5.1l-0.9,12.9
						c0,0.4-0.5,0.7-0.9,0.7H37C36.6,39.5,36.2,39.1,36.1,38.8z"/>
				</g>
			</g>
		</g>
		<g id="Tech_copy">
		</g>
		<g id="Features_copy">
		</g>
		<g id="Hero_copy">
		</g>
	</g>
	<g id="Nav_copy">
	</g>
</g>
<g id="_x31_280">
	<g id="Body">
		<g id="Pricing">
		</g>
		<g id="Mobile_Experience">
		</g>
	</g>
</g>
<g id="_x31_280_Wireframe">
	<g id="Body_copy_2">
		<g id="Mobile_Experience_copy_2" display="none">
		</g>
	</g>
</g>
</svg>
