<?xml version="1.0" encoding="utf-8"?>
<!-- Generator: Adobe Illustrator 19.1.0, SVG Export Plug-In . SVG Version: 6.00 Build 0)  -->
<!DOCTYPE svg PUBLIC "-//W3C//DTD SVG 1.1//EN" "http://www.w3.org/Graphics/SVG/1.1/DTD/svg11.dtd">
<svg version="1.1" id="Layer_1" xmlns="http://www.w3.org/2000/svg" xmlns:xlink="http://www.w3.org/1999/xlink" x="0px" y="0px"
	 viewBox="0 0 1920 1080" enable-background="new 0 0 1920 1080" xml:space="preserve">
<defs>
	<filter id="Adobe_OpacityMaskFilter" filterUnits="userSpaceOnUse" x="-55.1" y="635.8" width="2093.8" height="515.2">
		
			<feColorMatrix  type="matrix" values="-1 0 0 0 1  0 -1 0 0 1  0 0 -1 0 1  0 0 0 1 0" color-interpolation-filters="sRGB" result="source"/>
	</filter>
</defs>
<mask maskUnits="userSpaceOnUse" x="-55.1" y="635.8" width="2093.8" height="515.2" id="SVGID_2_">
	<g filter="url(#Adobe_OpacityMaskFilter)">
		<linearGradient id="SVGID_4_" gradientUnits="userSpaceOnUse" x1="1043.262" y1="1046.5593" x2="1043.262" y2="845.9808">
			<stop  offset="0" style="stop-color:#FFFFFF"/>
			<stop  offset="7.294476e-03" style="stop-color:#FBFBFB"/>
			<stop  offset="0.1116" style="stop-color:#C9C8C8"/>
			<stop  offset="0.2207" style="stop-color:#9D9B9B"/>
			<stop  offset="0.3325" style="stop-color:#777575"/>
			<stop  offset="0.4478" style="stop-color:#595656"/>
			<stop  offset="0.5677" style="stop-color:#413D3E"/>
			<stop  offset="0.6941" style="stop-color:#302C2D"/>
			<stop  offset="0.8315" style="stop-color:#262223"/>
			<stop  offset="1" style="stop-color:#231F20"/>
		</linearGradient>
		<rect x="-192.9" y="606.9" fill="url(#SVGID_4_)" width="2472.2" height="583.9"/>
	</g>
</mask>
<g mask="url(#SVGID_2_)">
	<polygon fill="#345868" points="-55.1,1098 97.8,635.8 250.7,1098 	"/>
	<polygon fill="#345868" points="126.9,1151 279.8,688.8 432.7,1151 	"/>
	<polygon fill="#345868" points="299.9,1098 452.8,635.8 605.7,1098 	"/>
	<polygon fill="#345868" points="1556.9,1137 1709.8,674.8 1862.7,1137 	"/>
	<polygon fill="#345868" points="636.9,1137 789.8,674.8 942.7,1137 	"/>
	<polygon fill="#345868" points="821.9,1119 974.8,656.8 1127.7,1119 	"/>
	<polygon fill="#345868" points="1172.9,1098 1325.8,635.8 1478.7,1098 	"/>
	<polygon fill="#345868" points="1732.9,1098 1885.8,635.8 2038.7,1098 	"/>
</g>
</svg>
