<?xml version="1.0" encoding="utf-8"?>
<!-- Generator: Adobe Illustrator 19.1.0, SVG Export Plug-In . SVG Version: 6.00 Build 0)  -->
<!DOCTYPE svg PUBLIC "-//W3C//DTD SVG 1.1//EN" "http://www.w3.org/Graphics/SVG/1.1/DTD/svg11.dtd">
<svg version="1.1" id="Layer_1" xmlns="http://www.w3.org/2000/svg" xmlns:xlink="http://www.w3.org/1999/xlink" x="0px" y="0px"
	 viewBox="0 0 1920 1080" enable-background="new 0 0 1920 1080" xml:space="preserve">
<defs>
	<filter id="Adobe_OpacityMaskFilter" filterUnits="userSpaceOnUse" x="-156.9" y="332" width="2460.9" height="580">
		
			<feColorMatrix  type="matrix" values="-1 0 0 0 1  0 -1 0 0 1  0 0 -1 0 1  0 0 0 1 0" color-interpolation-filters="sRGB" result="source"/>
	</filter>
</defs>
<mask maskUnits="userSpaceOnUse" x="-156.9" y="332" width="2460.9" height="580" id="SVGID_2_">
	<g filter="url(#Adobe_OpacityMaskFilter)">
		<linearGradient id="SVGID_4_" gradientUnits="userSpaceOnUse" x1="1012.4439" y1="743.1733" x2="1012.4439" y2="649.2294">
			<stop  offset="0" style="stop-color:#FFFFFF"/>
			<stop  offset="1" style="stop-color:#000000"/>
		</linearGradient>
		<rect x="-232.3" y="346.9" fill="url(#SVGID_4_)" stroke="#000000" stroke-miterlimit="10" width="2489.5" height="733.1"/>
	</g>
</mask>
<g mask="url(#SVGID_2_)">
	<g>
		<defs>
			<path id="SVGID_110_" d="M-105,618.1l346-148c7.4-3.2,15.8-3.2,23.2-0.1l389.7,160.2L772.5,525c10.6-9.4,26.4-10.1,37.8-1.6
				l143.3,106.8l258.8-144.9c9-5.1,20.1-5.1,29.1-0.1l262.7,145l272.3-211c10.7-8.3,25.6-8.4,36.4-0.2L2113,645.3V783H-105
				L-105,618.1"/>
		</defs>
		<clipPath id="SVGID_6_">
			<use xlink:href="#SVGID_110_"  overflow="visible"/>
		</clipPath>
		<polyline clip-path="url(#SVGID_6_)" fill="#474747" points="1920,500 1920,783 0,783 0,573.3 -105.2,618.1 -105,783 2113,783 
			2113,645.3 1920,499.7 		"/>
		
			<linearGradient id="SVGID_8_" gradientUnits="userSpaceOnUse" x1="5655" y1="-1028.9998" x2="5656" y2="-1028.9998" gradientTransform="matrix(3.054151e-08 -678.6992 -678.6992 -3.054151e-08 -697421.375 3838807.5)">
			<stop  offset="0" style="stop-color:#4589FF"/>
			<stop  offset="0.5993" style="stop-color:#584F8A"/>
			<stop  offset="1" style="stop-color:#453F6C"/>
		</linearGradient>
		<path clip-path="url(#SVGID_6_)" fill="url(#SVGID_8_)" d="M1795,413c-6.5,0-13,2.1-18.4,6.3l-272.3,211l-262.7-145
			c-4.5-2.5-9.5-3.7-14.5-3.7c-5.1,0-10.1,1.3-14.7,3.8L953.7,630.3L810.4,523.5c-5.3-4-11.6-5.9-17.9-5.9c-7.1,0-14.3,2.5-19.9,7.6
			L653.9,630.3L264.2,470.1c-3.7-1.5-7.5-2.3-11.4-2.3c-4,0-8.2,0.8-11.9,2.4L0,573.3V783h1920V499.7L1813,419
			C1807.7,415,1801.4,413,1795,413"/>
		<rect x="-156.9" y="332" opacity="0.2" clip-path="url(#SVGID_6_)" width="2460.9" height="580"/>
	</g>
</g>
</svg>
