<?xml version="1.0" encoding="UTF-8"?>
<svg width="17px" height="23px" viewBox="0 0 17 23" version="1.1" xmlns="http://www.w3.org/2000/svg" xmlns:xlink="http://www.w3.org/1999/xlink">
    <!-- Generator: Sketch 41.2 (35397) - http://www.bohemiancoding.com/sketch -->
    <title>Icon / Thumbs Down</title>
    <desc>Created with Sketch.</desc>
    <defs></defs>
    <g id="Icons" stroke="none" stroke-width="1" fill="none" fill-rule="evenodd">
        <g id="Iconography" transform="translate(-870.000000, -126.000000)" fill="#231F1F">
            <g id="Icon-/-Thumbs-Down" transform="translate(870.000000, 126.000000)">
                <path d="M15.9991,10.2549 L15.9791,10.2739 C15.2671,10.9449 14.9091,11.2819 13.5991,12.6489 C11.8601,14.4609 10.8221,16.7709 10.8221,18.8279 L10.8221,21.6409 C10.8221,21.8269 10.6861,21.9939 10.5301,21.9989 C9.2091,22.0469 8.0631,20.7909 7.7351,18.9719 C7.6951,18.7129 7.6831,18.4279 7.6781,18.1259 C7.6351,17.0289 7.8001,15.7819 8.1561,14.5059 C8.2131,14.2839 8.2701,14.0739 8.3231,13.9009 C8.3891,13.7009 8.3551,13.4819 8.2321,13.3119 C8.1101,13.1429 7.9111,13.0419 7.7011,13.0419 L2.1221,13.0419 C1.7921,13.0419 1.4801,12.8979 1.2671,12.6459 C1.0501,12.3909 0.9601,12.0639 1.0151,11.7269 C1.1021,11.1959 1.6141,10.7959 2.2091,10.7959 L2.3791,10.7959 L2.8341,10.7959 L3.1831,9.7959 L2.3791,9.7959 C2.0491,9.7959 1.7361,9.6509 1.5221,9.3999 C1.3061,9.1449 1.2171,8.8179 1.2711,8.4799 C1.3571,7.9499 1.8711,7.5499 2.4661,7.5499 L3.7451,7.5499 L3.9681,7.5499 L4.3171,6.5499 L3.7451,6.5499 C3.4151,6.5499 3.1031,6.4059 2.8901,6.1539 C2.6731,5.8989 2.5831,5.5719 2.6381,5.2349 C2.7251,4.7039 3.2371,4.3039 3.8321,4.3039 L4.9581,4.3039 L5.1021,4.3039 L5.4511,3.3039 L4.9581,3.3039 C4.6281,3.3039 4.3151,3.1589 4.1021,2.9079 C3.8851,2.6529 3.7951,2.3259 3.8501,1.9889 C3.9361,1.4579 4.4501,1.0579 5.1131,1.0579 L6.9611,1.0579 C11.4941,1.0579 15.1691,3.6929 15.9991,4.3369 L15.9991,10.2549 Z M16.8241,3.7159 C16.6481,3.5669 12.4781,0.0579 6.9261,0.0579 L5.0451,0.0579 C3.9651,0.0579 3.0271,0.8189 2.8631,1.8279 C2.7731,2.3809 2.9001,2.9389 3.2121,3.3899 C2.4111,3.6149 1.7831,4.2649 1.6511,5.0739 C1.5631,5.6129 1.6821,6.1579 1.9781,6.6029 C1.1141,6.7909 0.4231,7.4669 0.2851,8.3199 C0.1841,8.9429 0.3561,9.5719 0.7611,10.0469 C0.8071,10.1019 0.8561,10.1539 0.9071,10.2029 C0.4481,10.5229 0.1191,11.0059 0.0281,11.5659 C-0.0729,12.1889 0.1011,12.8179 0.5051,13.2939 C0.9091,13.7689 1.4991,14.0419 2.1221,14.0419 L7.2441,14.0419 C7.2261,14.1099 7.2081,14.1789 7.1901,14.2479 C6.8091,15.6109 6.6321,16.9649 6.6781,18.1519 C6.6831,18.4909 6.7011,18.8209 6.7491,19.1359 C7.1611,21.4269 8.6821,22.9999 10.4651,22.9999 C10.4971,22.9999 10.5291,22.9999 10.5621,22.9979 C11.2571,22.9759 11.8221,22.3669 11.8221,21.6409 L11.8221,18.8279 C11.8221,17.0229 12.7561,14.9709 14.3191,13.3409 C15.6131,11.9929 15.9651,11.6619 16.6651,11.0019 L16.9991,10.6869 L16.9991,3.8659 L16.8241,3.7159 Z" id="Fill-1"></path>
            </g>
        </g>
    </g>
</svg>