<?xml version="1.0" encoding="UTF-8"?>
<svg width="17px" height="23px" viewBox="0 0 17 23" version="1.1" xmlns="http://www.w3.org/2000/svg" xmlns:xlink="http://www.w3.org/1999/xlink">
    <!-- Generator: Sketch 41.2 (35397) - http://www.bohemiancoding.com/sketch -->
    <title>Icon / Thumbs Up</title>
    <desc>Created with Sketch.</desc>
    <defs></defs>
    <g id="Icons" stroke="none" stroke-width="1" fill="none" fill-rule="evenodd">
        <g id="Iconography" transform="translate(-799.000000, -126.000000)" fill="#231F1F">
            <g id="Icon-/-Thumbs-Up" transform="translate(799.000000, 126.000000)">
                <path d="M14.6211,13.2622 C14.9511,13.2622 15.2631,13.4062 15.4761,13.6582 C15.6931,13.9132 15.7831,14.2402 15.7281,14.5772 C15.6421,15.1082 15.1291,15.5082 14.5341,15.5082 L13.2541,15.5082 L13.0321,15.5082 L12.6821,16.5082 L13.2541,16.5082 C13.5841,16.5082 13.8961,16.6532 14.1101,16.9042 C14.3271,17.1592 14.4161,17.4862 14.3611,17.8232 C14.2741,18.3542 13.7621,18.7542 13.1671,18.7542 L12.0421,18.7542 L11.8981,18.7542 L11.5481,19.7542 L12.0421,19.7542 C12.3721,19.7542 12.6841,19.8982 12.8971,20.1502 C13.1141,20.4052 13.2041,20.7322 13.1491,21.0692 C13.0621,21.6002 12.5501,22.0002 11.8861,22.0002 L10.0391,22.0002 C5.5051,22.0002 1.8301,19.3652 1.0001,18.7202 L1.0001,12.8032 L1.0191,12.7842 C1.7321,12.1132 2.0901,11.7762 3.4001,10.4092 C5.1391,8.5972 6.1771,6.2872 6.1771,4.2302 L6.1771,1.4172 C6.1771,1.2312 6.3131,1.0642 6.4691,1.0592 C7.8121,1.0332 8.9361,2.2672 9.2641,4.0862 C9.3041,4.3452 9.3161,4.6292 9.3211,4.9322 C9.3641,6.0282 9.1991,7.2752 8.8441,8.5502 C8.7861,8.7732 8.7291,8.9832 8.6751,9.1582 C8.6101,9.3572 8.6441,9.5772 8.7671,9.7462 C8.8901,9.9152 9.0881,10.0162 9.2981,10.0162 L14.8771,10.0162 C15.2071,10.0162 15.5191,10.1612 15.7331,10.4132 C15.9501,10.6682 16.0391,10.9942 15.9841,11.3312 C15.8971,11.8622 15.3851,12.2622 14.7901,12.2622 L14.6211,12.2622 L14.1651,12.2622 L13.8161,13.2622 L14.6211,13.2622 Z M16.9711,11.4922 C17.0721,10.8702 16.8991,10.2412 16.4951,9.7652 C16.0911,9.2892 15.5011,9.0162 14.8771,9.0162 L9.7551,9.0162 C9.7731,8.9482 9.7921,8.8792 9.8091,8.8092 C10.1901,7.4452 10.3671,6.0922 10.3211,4.9062 C10.3161,4.5672 10.2981,4.2372 10.2501,3.9222 C9.8301,1.5892 8.2311,-0.0388 6.4371,0.0602 C5.7421,0.0822 5.1771,0.6912 5.1771,1.4172 L5.1771,4.2302 C5.1771,6.0352 4.2431,8.0872 2.6801,9.7172 C1.3861,11.0652 1.0341,11.3962 0.3341,12.0562 L0.0001,12.3712 L0.0001,19.1912 L0.1751,19.3412 C0.3501,19.4912 4.5211,23.0002 10.0741,23.0002 L11.9551,23.0002 C13.0341,23.0002 13.9721,22.2392 14.1361,21.2302 C14.2251,20.6772 14.0991,20.1192 13.7871,19.6682 C14.5871,19.4432 15.2161,18.7932 15.3481,17.9842 C15.4351,17.4452 15.3171,16.9002 15.0221,16.4552 C15.8851,16.2672 16.5761,15.5912 16.7151,14.7382 C16.8161,14.1152 16.6421,13.4852 16.2381,13.0102 C16.1911,12.9552 16.1421,12.9042 16.0921,12.8542 C16.5511,12.5352 16.8801,12.0522 16.9711,11.4922 L16.9711,11.4922 Z" id="Fill-1"></path>
            </g>
        </g>
    </g>
</svg>