<?xml version="1.0" encoding="UTF-8"?>
<svg width="24px" height="20px" viewBox="0 0 24 20" version="1.1" xmlns="http://www.w3.org/2000/svg" xmlns:xlink="http://www.w3.org/1999/xlink">
    <!-- Generator: Sketch 40.2 (33826) - http://www.bohemiancoding.com/sketch -->
    <title>Icon / Camera</title>
    <desc>Created with Sketch.</desc>
    <defs>
        <polygon id="path-1" points="0 0.114 24 0.114 24 20 0 20"></polygon>
    </defs>
    <g id="Page-1" stroke="none" stroke-width="1" fill="none" fill-rule="evenodd">
        <g id="Request-Trunk-Form---Choose-Trunk-Type-Copy" transform="translate(-105.000000, -632.000000)">
            <g id="Group-7" transform="translate(12.000000, 629.000000)">
                <g id="Icon-/-Camera" transform="translate(93.000000, 3.000000)">
                    <mask id="mask-2" fill="white">
                        <use xlink:href="#path-1"></use>
                    </mask>
                    <g id="Clip-2"></g>
                    <path d="M19.7532,6.4492 C19.0632,6.4492 18.5032,7.0092 18.5032,7.6992 C18.5032,8.3892 19.0632,8.9492 19.7532,8.9492 C20.4432,8.9492 21.0032,8.3892 21.0032,7.6992 C21.0032,7.0092 20.4432,6.4492 19.7532,6.4492 L19.7532,6.4492 Z M12.0002,16.2252 C9.5182,16.2252 7.5002,14.2072 7.5002,11.7252 C7.5002,9.2442 9.5182,7.2252 12.0002,7.2252 C14.4812,7.2252 16.5002,9.2442 16.5002,11.7252 C16.5002,14.2072 14.4812,16.2252 12.0002,16.2252 L12.0002,16.2252 Z M12.0002,6.2252 C8.9682,6.2252 6.5002,8.6932 6.5002,11.7252 C6.5002,14.7582 8.9682,17.2252 12.0002,17.2252 C15.0322,17.2252 17.5002,14.7582 17.5002,11.7252 C17.5002,8.6932 15.0322,6.2252 12.0002,6.2252 L12.0002,6.2252 Z M23.0002,18.5002 C23.0002,18.7752 22.7752,19.0002 22.5002,19.0002 L1.5002,19.0002 C1.2242,19.0002 1.0002,18.7752 1.0002,18.5002 L1.0002,4.9522 C1.0002,4.6772 1.2242,4.4522 1.5002,4.4522 L3.7582,4.4522 L5.6232,4.4522 L18.3772,4.4522 L20.2422,4.4522 L22.5002,4.4522 C22.7752,4.4522 23.0002,4.6772 23.0002,4.9522 L23.0002,18.5002 Z M7.5782,3.2762 L8.3812,1.7592 C8.5912,1.3612 9.0002,1.1142 9.4502,1.1142 L14.5502,1.1142 C15.0002,1.1142 15.4092,1.3612 15.6192,1.7602 L16.4232,3.2762 C16.4572,3.3412 16.5092,3.3912 16.5492,3.4522 L7.4512,3.4522 C7.4922,3.3912 7.5432,3.3412 7.5782,3.2762 L7.5782,3.2762 Z M22.5002,3.4522 L20.2422,3.4522 L18.3772,3.4522 C17.9272,3.4522 17.5162,3.2052 17.3062,2.8072 L16.5042,1.2922 C16.1202,0.5652 15.3712,0.1142 14.5502,0.1142 L9.4502,0.1142 C8.6292,0.1142 7.8802,0.5652 7.4962,1.2912 L6.6942,2.8072 C6.4832,3.2052 6.0732,3.4522 5.6232,3.4522 L3.7582,3.4522 L1.5002,3.4522 C0.6732,3.4522 0.0002,4.1252 0.0002,4.9522 L0.0002,18.5002 C0.0002,19.3272 0.6732,20.0002 1.5002,20.0002 L22.5002,20.0002 C23.3272,20.0002 24.0002,19.3272 24.0002,18.5002 L24.0002,4.9522 C24.0002,4.1252 23.3272,3.4522 22.5002,3.4522 L22.5002,3.4522 Z" id="Fill-1" fill="#999999" mask="url(#mask-2)"></path>
                </g>
            </g>
        </g>
    </g>
</svg>