<?xml version="1.0" encoding="UTF-8"?>
<svg width="28px" height="17px" viewBox="0 0 28 17" version="1.1" xmlns="http://www.w3.org/2000/svg" xmlns:xlink="http://www.w3.org/1999/xlink">
    <!-- Generator: Sketch 40.3 (33839) - http://www.bohemiancoding.com/sketch -->
    <title>Discover</title>
    <desc>Created with Sketch.</desc>
    <defs></defs>
    <g id="Request-Trunk---Form-with-message-preview" stroke="none" stroke-width="1" fill="none" fill-rule="evenodd">
        <g id="Discover" fill="#000000">
            <path d="M13.864,4.40515214 C11.658,4.40515214 9.864,6.06019779 9.864,8.09533195 C9.864,10.1304661 11.658,11.7855118 13.864,11.7855118 C16.07,11.7855118 17.864,10.1304661 17.864,8.09533195 C17.864,6.06019779 16.07,4.40515214 13.864,4.40515214 M13.864,12.7080567 C11.107,12.7080567 8.864,10.6387884 8.864,8.09533195 C8.864,5.55187552 11.107,3.48260719 13.864,3.48260719 C16.621,3.48260719 18.864,5.55187552 18.864,8.09533195 C18.864,10.6387884 16.621,12.7080567 13.864,12.7080567 M1.242,8.0962545 C2.369,9.4302545 7.657,15.2690415 13.864,15.2690415 C20.079,15.2690415 25.361,9.43117704 26.487,8.0962545 C25.36,6.7622545 20.072,0.922544952 13.864,0.922544952 C7.65,0.922544952 2.368,6.76133195 1.242,8.0962545 M13.864,16.1915864 C6.375,16.1915864 0.457,8.68483817 0.209,8.36471508 L0,8.0962545 L0.209,7.82779391 C0.457,7.50767082 6.375,0 13.864,0 C21.354,0 27.272,7.50767082 27.52,7.82779391 L27.729,8.0962545 L27.52,8.36471508 C27.272,8.68483817 21.354,16.1915864 13.864,16.1915864" id="Fill-1"></path>
        </g>
    </g>
</svg>