<?xml version="1.0" encoding="UTF-8"?>
<svg width="35px" height="33px" viewBox="0 0 35 33" version="1.1" xmlns="http://www.w3.org/2000/svg" xmlns:xlink="http://www.w3.org/1999/xlink">
    <!-- Generator: Sketch 40.2 (33826) - http://www.bohemiancoding.com/sketch -->
    <title>noun_639713_cc</title>
    <desc>Created with Sketch.</desc>
    <defs></defs>
    <g id="Page-1" stroke="none" stroke-width="1" fill="none" fill-rule="evenodd">
        <g id="Request-Trunk-Form---Choose-Trunk-Type" transform="translate(-33.000000, -311.000000)" fill="#B77D64">
            <g id="Group-13" transform="translate(11.000000, 194.000000)">
                <g id="Group-11" transform="translate(22.000000, 117.000000)">
                    <g id="noun_639713_cc">
                        <g id="Group">
                            <path d="M25.348712,5.32027559 L21.8677138,5.32027559 C21.8677138,5.32027559 21.8611458,6.09330709 21.84801,6.21023622 L18.097727,4.94350394 L18.097727,3.19606299 L17.5657254,3.19606299 C16.9746124,3.19606299 16.4885863,2.72185039 16.4885863,2.13070866 C16.4885863,1.53956693 16.9746124,1.06535433 17.5657254,1.06535433 C18.1568383,1.06535433 18.6428644,1.53956693 18.6428644,2.13070866 L19.7200035,2.13070866 C19.7200035,0.95492126 18.7545191,0 17.5657254,0 C16.3769316,0 15.4114472,0.95492126 15.4114472,2.13070866 C15.4114472,3.11811024 16.1010789,3.95610236 17.0271558,4.18996063 L17.0271558,4.94350394 L13.2768728,6.21023622 C13.2703049,6.09330709 13.257169,5.32027559 13.257169,5.32027559 L9.67765197,5.32027559 L0.883205456,9.40629921 L0.883205456,17.1755906 L6.91912506,14.9799213 L6.91912506,33 L28.2123257,33 L28.2123257,14.9734252 L34.2482453,17.1690945 L34.2482453,9.39980315 L25.348712,5.32027559 L25.348712,5.32027559 Z M17.5657254,5.88543307 L21.6247007,7.25610236 C21.0335878,8.91259843 19.4441508,10.1143701 17.5657254,10.1143701 C15.6872999,10.1143701 14.091295,8.91909449 13.50675,7.25610236 L17.5657254,5.88543307 L17.5657254,5.88543307 Z M33.1711062,15.6425197 L27.1351866,13.4468504 L27.1351866,31.9346457 L7.99626414,31.9346457 L7.99626414,13.4468504 L1.96034454,15.6425197 L1.96034454,10.0818898 L9.92066506,6.38562992 L12.2128696,6.38562992 C12.4821543,9.06850394 14.7809268,11.1732283 17.5657254,11.1732283 C20.350524,11.1732283 22.6492964,9.06850394 22.9185812,6.38562992 L25.1122668,6.38562992 L33.1711062,10.0818898 L33.1711062,15.6425197 L33.1711062,15.6425197 Z" id="Shape"></path>
                        </g>
                    </g>
                </g>
            </g>
        </g>
    </g>
</svg>