<?xml version="1.0" encoding="UTF-8"?>
<svg width="39px" height="29px" viewBox="0 0 39 29" version="1.1" xmlns="http://www.w3.org/2000/svg" xmlns:xlink="http://www.w3.org/1999/xlink">
    <!-- Generator: Sketch 40.2 (33826) - http://www.bohemiancoding.com/sketch -->
    <title>noun_95369_cc</title>
    <desc>Created with Sketch.</desc>
    <defs></defs>
    <g id="Page-1" stroke="none" stroke-width="1" fill="none" fill-rule="evenodd">
        <g id="Request-Trunk-Form---Choose-Trunk-Type" transform="translate(-37.000000, -465.000000)" fill="#B77D64">
            <g id="Group-13" transform="translate(11.000000, 194.000000)">
                <g id="Group-9" transform="translate(26.000000, 271.000000)">
                    <g id="noun_95369_cc">
                        <g id="Group">
                            <g id="Shape">
                                <path d="M8.8483871,14.9557143 C8.89032258,14.9142857 8.93225806,14.9142857 8.93225806,14.8728571 L8.97419355,14.8728571 C8.97419355,14.8728571 8.97419355,14.8728571 9.01612903,14.8314286 C9.14193548,14.7071429 9.26774194,14.6242857 9.39354839,14.5 L9.39354839,14.5 C12.1193548,12.18 14.8032258,9.86 17.5290323,7.54 C17.8645161,7.25 17.7387097,6.62857143 17.2774194,6.54571429 C14.5096774,6.21428571 11.7419355,5.84142857 8.97419355,5.51 C6.20645161,5.17857143 3.43870968,4.80571429 0.670967742,4.47428571 C0.167741935,4.43285714 -0.0838709677,4.97142857 0.167741935,5.34428571 C2.18064516,8.24428571 4.19354839,11.1857143 6.2483871,14.0857143 C6.33225806,14.2514286 6.45806452,14.3757143 6.54193548,14.5414286 C6.58387097,14.5828571 6.62580645,14.6242857 6.62580645,14.6657143 C6.96129032,15.2042857 7.08709677,16.1157143 6.91935484,17.69 C6.70967742,19.4714286 6.45806452,21.2114286 6.2483871,22.9928571 C6.12258065,23.8214286 6.03870968,24.65 5.91290323,25.4785714 C5.70322581,26.7628571 5.4516129,27.1357143 4.78064516,27.0528571 C3.9,26.9285714 2.97741935,26.8457143 2.09677419,26.7214286 C1.50967742,26.6385714 1.42580645,27.55 1.97096774,27.5914286 C2.30645161,27.6328571 2.64193548,27.6742857 2.97741935,27.7157143 C5.36774194,28.0057143 7.71612903,28.2957143 10.1064516,28.6271429 C10.6935484,28.71 10.7774194,27.7985714 10.2322581,27.7571429 C9.89677419,27.7157143 9.56129032,27.6742857 9.22580645,27.6328571 C8.68064516,27.55 8.09354839,27.5085714 7.5483871,27.4257143 C6.79354839,27.3428571 6.66774194,26.8457143 6.87741935,25.3128571 C7.17096774,23.1171429 7.42258065,20.9628571 7.71612903,18.7671429 C7.75806452,18.6014286 7.75806452,18.3942857 7.8,18.2285714 C8.00967742,16.3642857 8.34516129,15.4528571 8.8483871,14.9557143 L8.8483871,14.9557143 L8.8483871,14.9557143 Z M7.33870968,13.7128571 C7.33870968,13.7128571 7.33870968,13.7542857 7.33870968,13.7128571 C5.4516129,11.0614286 3.60645161,8.36857143 1.71935484,5.71714286 C3.10322581,5.88285714 4.52903226,6.04857143 5.91290323,6.25571429 C6.70967742,6.33857143 7.46451613,6.46285714 8.26129032,6.54571429 L9.3516129,6.67 C10.1483871,6.75285714 10.9870968,6.87714286 11.783871,6.96 C13.1677419,7.12571429 14.5096774,7.29142857 15.8935484,7.45714286 C15.7677419,7.58142857 15.6,7.70571429 15.4741935,7.83 L15.4741935,7.83 L8.42903226,13.8371429 L7.92580645,14.2514286 L7.8,14.3757143 L7.33870968,13.7128571 L7.33870968,13.7128571 Z"></path>
                                <path d="M30.7387097,11.6828571 C30.7387097,11.6414286 30.7806452,11.6 30.7806452,11.5585714 C30.7806452,11.5585714 30.7806452,11.5585714 30.7806452,11.5171429 C30.7806452,11.5171429 30.7806452,11.5171429 30.7806452,11.4757143 C30.8225806,11.31 30.9064516,11.1857143 30.9483871,11.02 L30.9483871,11.02 C32.2483871,7.74714286 33.5903226,4.43285714 34.8903226,1.16 C35.0580645,0.745714286 34.6806452,0.248571429 34.1774194,0.414285714 C31.6612903,1.36714286 29.0193548,2.36142857 26.4193548,3.31428571 C23.8193548,4.26714286 21.1774194,5.22 18.5774194,6.17285714 C18.116129,6.33857143 18.116129,6.96 18.5354839,7.16714286 C21.7225806,8.82428571 24.8677419,10.4814286 28.0548387,12.1385714 C28.2225806,12.2214286 28.3903226,12.3042857 28.5580645,12.3871429 C28.6,12.4285714 28.6419355,12.4285714 28.7258065,12.47 C29.2709677,12.8014286 29.816129,13.5471429 30.4032258,15.0385714 C31.0322581,16.6957143 31.6612903,18.3942857 32.2903226,20.0514286 C32.583871,20.8385714 32.8774194,21.6257143 33.1709677,22.3714286 C33.5903226,23.5728571 33.5483871,24.0285714 32.9193548,24.2771429 C32.0806452,24.6085714 31.2,24.8985714 30.3612903,25.23 C29.816129,25.4371429 30.1516129,26.2657143 30.6548387,26.0585714 C30.9903226,25.9342857 31.283871,25.81 31.6193548,25.7271429 C33.883871,24.8985714 36.1064516,24.07 38.3709677,23.2414286 C38.916129,23.0342857 38.5806452,22.2057143 38.0774194,22.4128571 C37.7419355,22.5371429 37.4483871,22.6614286 37.1129032,22.7442857 C36.5677419,22.9514286 36.0645161,23.1171429 35.5193548,23.3242857 C34.8064516,23.5728571 34.4709677,23.2 33.9258065,21.75 C33.1709677,19.6785714 32.3741935,17.6071429 31.6193548,15.5771429 C31.5354839,15.4114286 31.4935484,15.2457143 31.4096774,15.0385714 C30.6548387,13.3814286 30.5290323,12.3871429 30.7387097,11.6828571 C30.7387097,11.7242857 30.7387097,11.7242857 30.7387097,11.6828571 L30.7387097,11.6828571 Z M28.8096774,11.31 L28.8096774,11.31 C25.916129,9.81857143 22.9806452,8.28571429 20.0870968,6.75285714 C21.3870968,6.25571429 22.7290323,5.8 24.0290323,5.30285714 C24.783871,5.01285714 25.4967742,4.76428571 26.2516129,4.47428571 L27.3,4.10142857 C28.0548387,3.81142857 28.8516129,3.52142857 29.6064516,3.27285714 C30.9064516,2.81714286 32.2064516,2.32 33.4645161,1.86428571 C33.3806452,2.03 33.3387097,2.23714286 33.2548387,2.40285714 L33.2548387,2.40285714 L29.8580645,10.9371429 L29.6064516,11.5585714 L29.5225806,11.7242857 L28.8096774,11.31 L28.8096774,11.31 Z"></path>
                                <polygon points="4.27741935 9.11428571 13.6709677 9.11428571 7.84193548 14.0442857"></polygon>
                                <polygon points="21.3870968 7.25 29.4387097 11.3514286 31.116129 7.25"></polygon>
                                <polygon points="17.4870968 5.96571429 15.0967742 0.828571429 16.983871 0.372857143"></polygon>
                                <polygon points="17.9483871 5.96571429 18.8290323 2.11285714 20.3387097 2.9"></polygon>
                                <polygon points="17.1096774 6.17285714 14.2580645 3.68714286 13.4193548 5.17857143"></polygon>
                            </g>
                        </g>
                    </g>
                </g>
            </g>
        </g>
    </g>
</svg>