<?xml version="1.0" encoding="UTF-8"?>
<svg width="31px" height="34px" viewBox="0 0 31 34" version="1.1" xmlns="http://www.w3.org/2000/svg" xmlns:xlink="http://www.w3.org/1999/xlink">
    <!-- Generator: Sketch 40.2 (33826) - http://www.bohemiancoding.com/sketch -->
    <title>noun_655957_cc</title>
    <desc>Created with Sketch.</desc>
    <defs></defs>
    <g id="Page-1" stroke="none" stroke-width="1" fill="none" fill-rule="evenodd">
        <g id="Request-Trunk-Form---Choose-Trunk-Type" transform="translate(-36.000000, -387.000000)" fill="#B77D64">
            <g id="Group-13" transform="translate(11.000000, 194.000000)">
                <g id="Group-10" transform="translate(24.000000, 192.000000)">
                    <g id="noun_655957_cc">
                        <g id="Group">
                            <g transform="translate(1.047482, 0.956730)" id="Shape">
                                <path d="M10.9062739,0.136581411 C10.9661807,0.138088974 11.0311038,0.15116708 11.0829414,0.171896068 L30.6812564,9.21727225 C30.8126933,9.27573176 30.9039498,9.41500794 30.9050353,9.55884827 L30.9050353,32.9260738 C30.9050164,33.1234138 30.725477,33.3029268 30.5281446,33.3029645 L10.9298296,33.3029645 L0.376890636,33.3029645 C0.168748286,33.3029437 2.07734245e-05,33.1342162 -3.76890625e-08,32.9260738 L-3.76890625e-08,7.29750422 C2.07734245e-05,7.08936187 0.168748286,6.92063436 0.376890636,6.92061355 L10.5529389,6.92061355 L10.5529389,0.513472086 C10.5481147,0.228765101 10.7265498,0.132013496 10.9062739,0.136581411 L10.9062739,0.136581411 Z M11.3067202,1.10236376 L11.3067202,32.5491832 L18.0907524,32.5491832 L18.0907524,28.4033857 C18.0907712,28.2060458 18.2703106,28.0264951 18.467643,28.0264951 L22.9903311,28.0264951 C23.2399684,28.0347867 23.3614252,28.261298 23.3672218,28.4033857 L23.3672218,32.5491832 L30.1512539,32.5491832 L30.1512539,9.79440494 L11.3067202,1.10236376 L11.3067202,1.10236376 Z M10.5529389,7.67439489 L0.753781348,7.67439489 L0.753781348,32.5491832 L10.5529389,32.5491832 L10.5529389,7.67439489 L10.5529389,7.67439489 Z M7.91470416,9.93573894 C8.11203658,9.93575778 8.29157599,10.1152972 8.29159483,10.3126296 L8.29159483,14.8353102 C8.29157599,15.0326501 8.11203658,15.2122008 7.91470416,15.2122008 L3.39201607,15.2122008 C3.19468365,15.2122008 3.01514424,15.0326501 3.01512539,14.8353102 L3.01512539,10.3126296 C3.01503494,10.1190096 3.14090889,9.94237222 3.39201607,9.93573894 L7.91470416,9.93573894 L7.91470416,9.93573894 Z M7.53781348,10.6895203 L3.76890674,10.6895203 L3.76890674,14.4584195 L7.53781348,14.4584195 L7.53781348,10.6895203 L7.53781348,10.6895203 Z M27.5130192,11.4433016 C27.759713,11.4499349 27.8885305,11.6353953 27.8899099,11.8201848 L27.8899099,17.0966655 C27.889891,17.2940055 27.7103516,17.4735562 27.5130192,17.4735562 L22.2365498,17.4735562 C22.0392174,17.4735562 21.8596779,17.2940055 21.8596591,17.0966655 L21.8596591,11.8201848 C21.8596779,11.6228448 22.0392174,11.4433205 22.2365498,11.4433016 L27.5130192,11.4433016 L27.5130192,11.4433016 Z M19.2214244,11.4433016 C19.4681182,11.4499349 19.5969356,11.6353953 19.5983151,11.8201848 L19.5983151,17.0966655 C19.5982962,17.2940055 19.4187568,17.4735562 19.2214244,17.4735562 L13.9449549,17.4735562 C13.7476225,17.4735562 13.5680831,17.2940055 13.5680643,17.0966655 L13.5680643,11.8201848 C13.5680831,11.6228448 13.7476225,11.4433205 13.9449549,11.4433016 L19.2214244,11.4433016 L19.2214244,11.4433016 Z M27.1361285,12.1970754 L22.6134404,12.1970754 L22.6134404,16.7197748 L27.1361285,16.7197748 L27.1361285,12.1970754 L27.1361285,12.1970754 Z M18.8445337,12.1970754 L14.3218456,12.1970754 L14.3218456,16.7197748 L18.8445337,16.7197748 L18.8445337,12.1970754 L18.8445337,12.1970754 Z M7.91470416,17.4735562 C8.11203658,17.4735939 8.29157599,17.6531069 8.29159483,17.8504469 L8.29159483,22.373135 C8.29157599,22.5704749 8.11203658,22.7499879 7.91470416,22.7500256 L3.39201607,22.7500256 C3.19468365,22.7499879 3.01514424,22.5704749 3.01512539,22.373135 L3.01512539,17.8504469 C3.01503494,17.6568381 3.14090889,17.4801895 3.39201607,17.4735562 L7.91470416,17.4735562 L7.91470416,17.4735562 Z M7.53781348,18.2273375 L3.76890674,18.2273375 L3.76890674,21.9962443 L7.53781348,21.9962443 L7.53781348,18.2273375 L7.53781348,18.2273375 Z M27.5130192,19.7349002 C27.759713,19.7416843 27.8885305,19.9270014 27.8899099,20.1117909 L27.8899099,25.3882603 C27.889891,25.5856003 27.7103516,25.7651133 27.5130192,25.765151 L22.2365498,25.765151 C22.0392174,25.7651133 21.8596779,25.5856003 21.8596591,25.3882603 L21.8596591,20.1117909 C21.8596779,19.914451 22.0392174,19.7349002 22.2365498,19.7349002 L27.5130192,19.7349002 L27.5130192,19.7349002 Z M19.2214244,19.7349002 C19.4681182,19.7416843 19.5969356,19.9270014 19.5983151,20.1117909 L19.5983151,25.3882603 C19.5982962,25.5856003 19.4187568,25.7651133 19.2214244,25.765151 L13.9449549,25.765151 C13.7476225,25.7651133 13.5680831,25.5856003 13.5680643,25.3882603 L13.5680643,20.1117909 C13.5680831,19.914451 13.7476225,19.7349002 13.9449549,19.7349002 L19.2214244,19.7349002 L19.2214244,19.7349002 Z M27.1361285,20.4886816 L22.6134404,20.4886816 L22.6134404,25.0113697 L27.1361285,25.0113697 L27.1361285,20.4886816 L27.1361285,20.4886816 Z M18.8445337,20.4886816 L14.3218456,20.4886816 L14.3218456,25.0113697 L18.8445337,25.0113697 L18.8445337,20.4886816 L18.8445337,20.4886816 Z M7.91470416,25.0113697 C8.11203658,25.0113697 8.29157599,25.1909204 8.29159483,25.3882603 L8.29159483,29.9109484 C8.29157599,30.1082884 8.11203658,30.2878014 7.91470416,30.2878391 L3.39201607,30.2878391 C3.19468365,30.2878014 3.01514424,30.1082884 3.01512539,29.9109484 L3.01512539,25.3882603 C3.01503494,25.1946516 3.14090889,25.018003 3.39201607,25.0113697 L7.91470416,25.0113697 L7.91470416,25.0113697 Z M7.53781348,25.765151 L3.76890674,25.765151 L3.76890674,29.5340578 L7.53781348,29.5340578 L7.53781348,25.765151 L7.53781348,25.765151 Z M22.6134404,28.7802764 L18.8445337,28.7802764 L18.8445337,32.5491832 L22.6134404,32.5491832 L22.6134404,28.7802764 L22.6134404,28.7802764 Z"></path>
                            </g>
                        </g>
                    </g>
                </g>
            </g>
        </g>
    </g>
</svg>