<?xml version="1.0" encoding="utf-8"?>
<!-- Generator: Adobe Illustrator 19.1.0, SVG Export Plug-In . SVG Version: 6.00 Build 0)  -->
<!DOCTYPE svg PUBLIC "-//W3C//DTD SVG 1.1//EN" "http://www.w3.org/Graphics/SVG/1.1/DTD/svg11.dtd">
<svg version="1.1" id="Layer_1" xmlns="http://www.w3.org/2000/svg" xmlns:xlink="http://www.w3.org/1999/xlink" x="0px" y="0px"
	 viewBox="0 0 122.576 122.576" style="enable-background:new 0 0 122.576 122.576;" xml:space="preserve">
<style type="text/css">
	.st0{opacity:0.5;}
	.st1{fill:#231F20;}
	.st2{fill:#86B6EF;}
	.st3{fill:#F4BB2A;}
	.st4{fill:none;stroke:#A7A9AC;stroke-width:11;stroke-miterlimit:10;}
	.st5{opacity:0.8;fill:#2CB7A6;}
	.st6{opacity:0.8;fill:#2BACB9;}
	.st7{fill:#2BACB9;}
	.st8{fill:#247B7F;}
	.st9{fill:none;stroke:#1A535B;stroke-width:6;stroke-linecap:round;stroke-linejoin:round;stroke-miterlimit:10;}
	.st10{fill:none;stroke:#91C9E8;stroke-width:6;stroke-linecap:round;stroke-linejoin:round;stroke-miterlimit:10;}
	.st11{fill:none;stroke:#2BACB9;stroke-width:6;stroke-linecap:round;stroke-linejoin:round;stroke-miterlimit:10;}
	.st12{fill:#38DDE5;}
	.st13{fill:#2BAFAF;}
	.st14{fill:#30BFBF;}
	.st15{fill:#259499;}
	.st16{fill:#32C5CC;}
	.st17{fill:none;stroke:#000000;stroke-width:9.414;stroke-miterlimit:10;}
	.st18{fill:none;stroke:#27AAE1;stroke-width:4;stroke-miterlimit:10;}
	.st19{fill:none;}
	.st20{fill:#004C66;}
	.st21{fill:none;stroke:#000000;stroke-width:2;stroke-miterlimit:10;}
	.st22{fill:none;stroke:#000000;stroke-width:6;stroke-linecap:round;stroke-linejoin:round;stroke-miterlimit:10;}
	.st23{fill:none;stroke:#000000;stroke-miterlimit:10;}
	.st24{fill:none;stroke:#000000;stroke-linecap:round;stroke-linejoin:round;stroke-miterlimit:10;}
	.st25{fill:none;stroke:#000000;stroke-width:4;stroke-miterlimit:10;}
	.st26{opacity:0.8;fill:#245D99;}
	.st27{opacity:0.8;fill:#A0434E;}
	.st28{opacity:0.8;}
	.st29{fill:#FFFFFF;stroke:#231F20;stroke-width:10;stroke-miterlimit:10;}
	.st30{fill:#FFFFFF;stroke:#231F20;stroke-width:10;stroke-linecap:round;stroke-miterlimit:10;}
	.st31{fill:#FFFFFF;}
	.st32{fill:#BCBEC0;}
	.st33{fill:#B24056;}
	.st34{fill:#F3556F;}
	.st35{fill:none;stroke:#939598;stroke-miterlimit:10;}
	.st36{fill:none;stroke:#6D6E71;stroke-miterlimit:10;}
	.st37{fill:none;stroke:#414042;stroke-miterlimit:10;}
	.st38{fill:none;stroke:#58595B;stroke-width:6;stroke-miterlimit:10;}
	.st39{fill:#3EC17C;}
	.st40{fill:#4AD891;}
	.st41{fill:#58595B;}
</style>
<polyline class="st38" points="80.946,3 3,3 3,119.576 119.576,119.576 119.576,41.63 "/>
<g>
	<g>
		<path class="st33" d="M58.764,65.605c8.638,5.741,17.616,10.873,26.983,15.328c5.782,2.75,10.862-5.869,5.047-8.635
			c-9.367-4.455-18.346-9.587-26.983-15.328C58.437,53.398,53.424,62.056,58.764,65.605L58.764,65.605z"/>
	</g>
</g>
<g>
	<g>
		<path class="st34" d="M25.372,76.741c9.966,9.786,22.01,4.026,30.917-4c10.343-9.32,19.297-20.164,27.354-31.485
			c2.265-3.183-0.79-7.511-4.317-7.524c-8.31-0.028-16.62-0.057-24.929-0.085c0,3.333,0,6.667,0,10
			c6.697,0.023,13.393,0.046,20.09,0.068c0-3.333,0-6.667,0-10c-3.061-0.01-6.121-0.021-9.182-0.031c-6.435-0.022-6.444,9.978,0,10
			c4.437,0.015,8.875,0.03,13.312,0.045c0-3.333,0-6.667,0-10C65.953,33.686,53.29,33.643,40.627,33.6
			c-6.435-0.022-6.444,9.978,0,10c12.663,0.043,25.326,0.086,37.989,0.129c6.435,0.022,6.444-9.978,0-10
			c-4.437-0.015-8.875-0.03-13.312-0.045c0,3.333,0,6.667,0,10c3.061,0.01,6.121,0.021,9.182,0.031c6.435,0.022,6.444-9.978,0-10
			c-6.697-0.023-13.393-0.046-20.09-0.068c-6.435-0.022-6.444,9.978,0,10c8.31,0.028,16.62,0.057,24.929,0.085
			c-1.439-2.508-2.878-5.016-4.317-7.524c-5.933,8.337-12.437,16.236-19.627,23.522c-5.153,5.221-15.358,17.382-22.938,9.939
			C27.848,65.157,20.771,72.223,25.372,76.741L25.372,76.741z"/>
	</g>
</g>
</svg>
