<svg xmlns="http://www.w3.org/2000/svg" viewBox="0 0 69.49 69.49"><title>logo</title><path d="M34.89,42.49a217.37,217.37,0,0,0,27,15.33c5.78,2.75,10.86-5.87,5-8.63a217.37,217.37,0,0,1-27-15.33c-5.37-3.57-10.39,5.09-5,8.63Z" style="fill:#b24056"/><path d="M16.75,20.48l38,.13c6.44,0,6.44-10,0-10l-13.31,0v10l9.18,0v-10l-20.09-.07c-6.44,0-6.44,10,0,10l20.09.07c6.44,0,6.44-10,0-10l-9.18,0c-6.44,0-6.44,10,0,10l13.31,0v-10l-38-.13c-6.44,0-6.44,10,0,10Z" style="fill:#f3556f"/><path d="M51.13,13.09A191.2,191.2,0,0,1,31.5,36.61C26.35,41.83,16.14,54,8.56,46.55,4,42-3.11,49.1,1.49,53.62c10,9.79,22,4,30.92-4,10.34-9.32,19.3-20.16,27.35-31.49,3.74-5.25-4.93-10.25-8.63-5Z" style="fill:#f3556f"/></svg>