<?xml version="1.0" encoding="utf-8"?>
<!-- Generator: Adobe Illustrator 19.1.0, SVG Export Plug-In . SVG Version: 6.00 Build 0)  -->
<!DOCTYPE svg PUBLIC "-//W3C//DTD SVG 1.1//EN" "http://www.w3.org/Graphics/SVG/1.1/DTD/svg11.dtd">
<svg version="1.1" xmlns="http://www.w3.org/2000/svg" xmlns:xlink="http://www.w3.org/1999/xlink" x="0px" y="0px"
	 viewBox="0 0 769.5 446.6" enable-background="new 0 0 769.5 446.6" xml:space="preserve">
<g id="Desktop_Version">
	<g>
		<path fill="#1A1A1A" d="M676.9,0H384.7H92.6C79.4,0,68.7,10.7,68.7,23.8v390.3c0,9,7.3,16.4,16.4,16.4h299.6h299.6
			c9,0,16.4-7.3,16.4-16.4V23.8C700.7,10.7,690.1,0,676.9,0z"/>
		<path fill="#B2B2B2" d="M676.9,3c11.5,0,20.8,9.3,20.8,20.8v390.3c0,7.4-6,13.4-13.4,13.4H384.7H85.1c-7.4,0-13.4-6-13.4-13.4
			V23.8C71.7,12.3,81.1,3,92.6,3h292.2H676.9 M676.9,0H384.7H92.6C79.4,0,68.7,10.7,68.7,23.8v390.3c0,9,7.3,16.4,16.4,16.4h299.6
			h299.6c9,0,16.4-7.3,16.4-16.4V23.8C700.7,10.7,690.1,0,676.9,0z"/>
		<polygon fill="#E5E5E5" points="384.7,29.7 91.4,29.7 91.4,396 384.7,396 678.1,396 678.1,29.7 		"/>
		<polygon fill="#D0D2D5" points="384.7,422.2 0,422.2 0,436.6 384.7,436.6 769.5,436.6 769.5,422.2 		"/>
		<path fill="#6C6D70" d="M384.7,436.6H0c0,5.5,25,9.9,30.5,9.9h354.3H739c5.5,0,30.5-4.5,30.5-9.9H384.7z"/>
		<path fill="#E5E5E5" d="M384.7,422.2H330v1c0,3.4,2.8,6.2,6.2,6.2h48.6h48.6c3.4,0,6.2-2.8,6.2-6.2v-1H384.7z"/>
	</g>
</g>
<g id="Mobile_Version">
</g>
</svg>
