<?xml version="1.0" encoding="UTF-8"?>
<svg width="423px" height="144px" viewBox="0 0 423 144" version="1.1" xmlns="http://www.w3.org/2000/svg" xmlns:xlink="http://www.w3.org/1999/xlink">
    <!-- Generator: Sketch 42 (36781) - http://www.bohemiancoding.com/sketch -->
    <title>Artboard</title>
    <desc>Created with Sketch.</desc>
    <defs></defs>
    <g id="Page-1" stroke="none" stroke-width="1" fill="none" fill-rule="evenodd">
        <g id="Artboard" fill="#FFFFFF">
            <path d="M38.265625,48.0234375 C35.3125,48.1640625 30.25,48.234375 25.5039062,48.234375 C20.6171875,48.234375 16.0117188,48.1640625 13.4101562,48.0234375 L13.4101562,49.4648438 C17.734375,49.6757812 18.5429687,50.4140625 18.5429687,55.6523438 L18.5429687,88.5585938 C18.5429687,98.5078125 18.5429687,102.304688 17.03125,106.488281 C16.0820312,108.949219 13.9023437,111.023438 10.6679687,111.023438 C10.2460937,111.023438 9.82421875,111.023438 9.3671875,110.953125 C12.3203125,109.863281 13.5507812,107.648438 13.5507812,105.539062 C13.5507812,102.023438 11.0546875,100.230469 7.08203125,100.230469 C2.828125,100.230469 0.015625,102.375 0.015625,105.785156 C0.015625,108.070312 1.03515625,109.863281 3.63671875,111.164062 C5.8515625,112.253906 9.15625,112.535156 11.6875,112.535156 C22.4101562,112.535156 29.7578125,107.4375 31.9023437,100.792969 C32.9921875,97.3476562 33.1679687,92.53125 33.1679687,87.9257812 C33.1679687,85.8867188 33.1328125,83.8476562 33.1328125,82.0195312 L33.1328125,55.6523438 C33.1328125,50.4140625 33.8710937,49.6757812 38.265625,49.4648438 L38.265625,48.0234375 Z M51.4492188,42.6796875 C46.3867188,42.6796875 43.609375,44.7890625 43.609375,48.9023438 C43.609375,52.9804688 46.3867188,55.0898438 51.4492188,55.0898438 C56.40625,55.0898438 59.2890625,52.9804688 59.2890625,48.9023438 C59.2890625,44.7890625 56.40625,42.6796875 51.4492188,42.6796875 Z M58.3398438,60.8554688 C54.7539062,61.5585938 50.640625,61.8398438 45.8242188,61.8398438 C44.3828125,61.8398438 42.8710938,61.7695312 41.359375,61.6289062 L41.359375,63.140625 C44.3828125,63.140625 45.4023438,65.1445312 45.4023438,69.46875 L45.4023438,92.3203125 C45.4023438,96.328125 44.3125,97.4882812 41.359375,97.4882812 L41.359375,99 C43.4335938,98.9296875 48.1445312,98.71875 52.1523438,98.71875 C56.1953125,98.71875 60.4492188,98.9296875 62.3828125,99 L62.3828125,97.4882812 C59.4296875,97.4882812 58.3398438,96.328125 58.3398438,92.3203125 L58.3398438,60.8554688 Z M124.75,72.8085938 C124.75,67.8867188 124.082031,65.2148438 122.640625,63.4921875 C121.269531,61.8398438 118.914062,60.609375 114.519531,60.609375 C109.386719,60.609375 105.167969,62.015625 102.53125,66.8671875 C102.214844,65.4257812 101.6875,64.3359375 100.984375,63.4921875 C99.6132812,61.8398438 97.2226562,60.609375 92.828125,60.609375 C88.0117188,60.609375 84.2851562,62.1914062 82.1054688,66.0234375 L82.1054688,60.8554688 C78.5195312,61.5585938 74.40625,61.8398438 69.5898438,61.8398438 C68.1484375,61.8398438 66.6367188,61.7695312 65.125,61.6289062 L65.125,63.140625 C68.1484375,63.140625 69.1679688,65.1445312 69.1679688,69.46875 L69.1679688,92.3203125 C69.1679688,96.328125 68.078125,97.4882812 65.125,97.4882812 L65.125,99 C67.1992188,98.9296875 71.9101562,98.71875 75.9179688,98.71875 C79.3984375,98.71875 83.0546875,98.9296875 84.7070312,99 L84.7070312,97.4882812 C82.7734375,97.4882812 82.1054688,96.328125 82.1054688,92.3203125 L82.1054688,69.5390625 C82.1054688,66.515625 84.6367188,64.3710938 87.3085938,64.3710938 C89.3125,64.3710938 90.1210938,65.8828125 90.1210938,68.90625 L90.1210938,92.3203125 C90.1210938,96.328125 89.3828125,97.4882812 87.5195312,97.4882812 L87.5195312,99 C89.3125,98.9296875 93.2851562,98.71875 97.0117188,98.71875 C100.492188,98.71875 104.570312,98.9296875 106.398438,99 L106.398438,97.4882812 C103.867188,97.4882812 103.058594,96.328125 103.058594,92.3203125 L103.058594,72.8085938 C103.058594,71.6484375 103.023438,70.59375 102.953125,69.6796875 C103.304688,66.8671875 105.765625,64.3710938 108.261719,64.3710938 C110.757812,64.3710938 111.777344,65.8828125 111.777344,68.90625 L111.777344,92.3203125 C111.777344,96.328125 111.144531,97.4882812 109.175781,97.4882812 L109.175781,99 C111.003906,98.9296875 114.941406,98.71875 118.703125,98.71875 C122.429688,98.71875 126.824219,98.9296875 128.757812,99 L128.757812,97.4882812 C125.804688,97.4882812 124.75,96.328125 124.75,92.3203125 L124.75,72.8085938 Z M190.703125,72.8085938 L190.703125,92.3203125 C190.703125,96.328125 191.757812,97.4882812 194.710938,97.4882812 L194.710938,99 C192.777344,98.9296875 188.382812,98.71875 184.65625,98.71875 C180.894531,98.71875 176.957031,98.9296875 175.128906,99 L175.128906,97.4882812 C177.097656,97.4882812 177.730469,96.328125 177.730469,92.3203125 L177.730469,68.90625 C177.730469,65.8828125 176.710938,64.3710938 174.214844,64.3710938 C171.71875,64.3710938 169.257812,66.8671875 168.90625,69.6796875 C168.976562,70.59375 169.011719,71.6484375 169.011719,72.8085938 L169.011719,92.3203125 C169.011719,96.328125 169.820312,97.4882812 172.351562,97.4882812 L172.351562,99 C170.523438,98.9296875 166.445312,98.71875 162.964844,98.71875 C159.238281,98.71875 155.265625,98.9296875 153.472656,99 L153.472656,97.4882812 C155.335938,97.4882812 156.074219,96.328125 156.074219,92.3203125 L156.074219,68.90625 C156.074219,65.8828125 155.265625,64.3710938 153.261719,64.3710938 C150.589844,64.3710938 148.058594,66.515625 148.058594,69.5390625 L148.058594,92.3203125 C148.058594,96.328125 148.726562,97.4882812 150.660156,97.4882812 L150.660156,99 C149.007812,98.9296875 145.351562,98.71875 141.871094,98.71875 C137.863281,98.71875 133.152344,98.9296875 131.078125,99 L131.078125,97.4882812 C134.03125,97.4882812 135.121094,96.328125 135.121094,92.3203125 L135.121094,69.46875 C135.121094,65.1445312 134.101562,63.140625 131.078125,63.140625 L131.078125,61.6289062 C132.589844,61.7695312 134.101562,61.8398438 135.542969,61.8398438 C140.359375,61.8398438 144.472656,61.5585938 148.058594,60.8554688 L148.058594,66.0234375 C150.238281,62.1914062 153.964844,60.609375 158.78125,60.609375 C163.175781,60.609375 165.566406,61.8398438 166.9375,63.4921875 C167.640625,64.3359375 168.167969,65.4257812 168.484375,66.8671875 C171.121094,62.015625 175.339844,60.609375 180.472656,60.609375 C184.867188,60.609375 187.222656,61.8398438 188.59375,63.4921875 C190.035156,65.2148438 190.703125,67.8867188 190.703125,72.8085938 Z M227.792969,61.9101562 C229.515625,61.9101562 232.222656,61.8398438 233.3125,61.6289062 L233.3125,63.140625 C231.519531,63.8085938 229.796875,65.4609375 228.214844,70.1367188 L219.214844,96.9257812 L216.191406,105.609375 C215.3125,108.070312 214.398438,109.722656 213.027344,110.8125 C211.726562,111.832031 209.863281,112.535156 206.3125,112.535156 C202.375,112.535156 196.539062,110.8125 196.539062,105.785156 C196.539062,102.375 199.351562,100.230469 203.570312,100.230469 C207.542969,100.230469 210.074219,102.023438 210.074219,105.539062 C210.074219,107.648438 208.632812,110.074219 205.398438,111.09375 C206.101562,111.234375 207.261719,111.234375 207.824219,111.234375 C210.917969,111.234375 213.378906,109.441406 214.679688,105.46875 L215.066406,104.308594 L198.261719,67.1835938 C196.609375,63.4921875 195.097656,63.140625 194.078125,63.140625 L194.078125,61.6289062 C197.910156,61.9101562 202.199219,62.0507812 205.820312,62.0507812 C210.285156,62.0507812 213.378906,61.8398438 216.261719,61.6289062 L216.261719,63.140625 C214.082031,63.140625 211.9375,63.1757812 211.9375,64.7578125 C211.9375,65.0742188 212.007812,65.4257812 212.21875,65.8828125 L221.113281,86.9765625 L224.101562,77.765625 C225.085938,74.8476562 225.472656,72.3867188 225.472656,70.3828125 C225.472656,65.671875 223.1875,63.3515625 220.199219,63.140625 L220.199219,61.6289062 C222.238281,61.8398438 226.035156,61.9101562 227.792969,61.9101562 Z M289.914062,48.1640625 C286.609375,48.1640625 284.078125,48.09375 280.492187,47.953125 L280.492187,49.3945312 C283.9375,49.5351562 286.257812,50.9765625 286.257812,54.7382812 C286.257812,57.1992188 285.238281,60.6796875 282.847656,65.4609375 L279.578125,71.9648438 L269.3125,52.2070312 C269.101562,51.7851562 268.996094,51.3984375 268.996094,51.1171875 C268.996094,49.5 271.773437,49.4648438 274.796875,49.4648438 L274.796875,47.953125 C269.980469,48.1640625 263.828125,48.375 258.941406,48.375 C255.074219,48.375 251.980469,48.234375 249.027344,47.953125 L249.027344,49.4648438 C250.011719,49.4648438 251.523437,50.484375 253.175781,53.5078125 L266.5,78.1171875 L266.5,91.3710938 C266.5,96.609375 265.796875,97.3476562 261.402344,97.5585938 L261.402344,99 C264.003906,98.859375 268.960937,98.7890625 273.847656,98.7890625 C278.3125,98.7890625 283.445312,98.859375 286.222656,99 L286.222656,97.5585938 C281.933594,97.3476562 281.125,96.609375 281.125,91.3710938 L281.125,72.2109375 L287.804687,58.9570312 C290.757812,53.1210938 293.21875,50.484375 295.46875,49.3945312 L295.46875,47.953125 C294.027344,48.09375 291.777344,48.1640625 289.914062,48.1640625 Z M316.773438,60.609375 C327.917969,60.609375 335.265625,65.8125 335.265625,80.3671875 C335.265625,94.8867188 327.917969,100.019531 316.773438,100.019531 C305.59375,100.019531 298.246094,94.8867188 298.246094,80.3671875 C298.246094,65.8125 305.59375,60.609375 316.773438,60.609375 Z M316.773438,62.0507812 C313.890625,62.0507812 311.710938,67.4648438 311.710938,80.3671875 C311.710938,93.234375 313.890625,98.578125 316.773438,98.578125 C319.65625,98.578125 321.800781,93.234375 321.800781,80.3671875 C321.800781,67.4648438 319.65625,62.0507812 316.773438,62.0507812 Z M358.257812,60.609375 C369.402344,60.609375 376.75,65.8125 376.75,80.3671875 C376.75,94.8867188 369.402344,100.019531 358.257812,100.019531 C347.078125,100.019531 339.730469,94.8867188 339.730469,80.3671875 C339.730469,65.8125 347.078125,60.609375 358.257812,60.609375 Z M358.257812,62.0507812 C355.375,62.0507812 353.195312,67.4648438 353.195312,80.3671875 C353.195312,93.234375 355.375,98.578125 358.257812,98.578125 C361.140625,98.578125 363.285156,93.234375 363.285156,80.3671875 C363.285156,67.4648438 361.140625,62.0507812 358.257812,62.0507812 Z M408.953125,60.609375 C403.785156,60.609375 399.8125,62.1914062 397.492188,66.0234375 L397.492188,60.8554688 C393.90625,61.5585938 389.792969,61.8398438 384.976562,61.8398438 C383.535156,61.8398438 382.023438,61.7695312 380.511719,61.6289062 L380.511719,63.140625 C383.535156,63.140625 384.554688,65.1445312 384.554688,69.46875 L384.554688,92.3203125 C384.554688,96.328125 383.464844,97.4882812 380.511719,97.4882812 L380.511719,99 C382.585938,98.9296875 387.296875,98.71875 391.304688,98.71875 C395.066406,98.71875 399.003906,98.9296875 400.832031,99 L400.832031,97.4882812 C398.371094,97.4882812 397.492188,96.328125 397.492188,92.3203125 L397.492188,69.5390625 C397.492188,66.515625 400.023438,64.3710938 402.695312,64.3710938 C405.191406,64.3710938 406.210938,65.8828125 406.210938,68.90625 L406.210938,92.3203125 C406.210938,96.328125 405.367188,97.4882812 402.90625,97.4882812 L402.90625,99 C404.839844,98.9296875 409.09375,98.71875 413.136719,98.71875 C416.863281,98.71875 421.257812,98.9296875 423.191406,99 L423.191406,97.4882812 C420.273438,97.4882812 419.183594,96.328125 419.183594,92.3203125 L419.183594,72.8085938 C419.183594,67.8867188 418.515625,65.2148438 417.074219,63.4921875 C415.703125,61.8398438 413.347656,60.609375 408.953125,60.609375 Z" id="Jimmy-Yoon"></path>
            <path d="M119.38098,77 C118.02098,85.5 116.66098,99.27 118.19098,104.71 C116.15098,106.92 112.24098,106.07 109.52098,103.18 C106.12098,98.25 109.52098,84.99 112.75098,78.36 C105.10098,80.06 98.9809803,81.76 92.6909803,81.76 C86.5709803,81.76 80.7909803,73.94 82.3209803,71.05 C88.2709803,67.99 98.4709803,65.95 105.27098,64.76 C123.29098,61.36 149.47098,60 155.42098,63.23 C157.12098,64.76 156.44098,66.8 154.57098,67.82 C151.17098,69.69 140.97098,72.24 139.78098,73.94 C136.21098,79.04 138.59098,100.46 138.93098,107.6 C138.25098,108.11 133.83098,108.28 132.98098,107.43 C124.99098,98.76 128.22098,84.48 129.92098,75.47 C126.01098,75.81 122.61098,76.32 119.38098,77 Z M159.67098,125.11 C159.33098,126.47 160.18098,128.17 158.82098,129.7 C151.34098,137.35 139.27098,137.01 130.43098,138.03 C122.61098,138.88 114.79098,140.24 104.42098,138.71 C103.23098,138.54 96.0909803,135.14 93.8809803,132.08 C92.8609803,130.72 95.0709803,114.57 97.1109803,107.6 C97.7909803,105.05 100.85098,99.95 104.42098,102.16 C105.61098,106.75 102.21098,116.27 104.08098,121.88 C107.31098,124.43 115.81098,123.24 119.72098,123.92 C127.71098,123.41 142.16098,118.99 144.20098,117.46 C153.55098,115.93 159.84098,122.9 159.67098,125.11 Z M138.76098,32.46 C138.76098,46.91 125.50098,54.39 110.54098,55.58 C97.9609803,56.43 96.6009803,47.25 97.6209803,39.77 C98.6409803,32.46 101.70098,21.07 109.01098,18.35 C110.20098,18.86 113.09098,20.22 114.79098,21.24 C114.96098,20.39 115.30098,19.88 115.98098,19.71 C126.35098,18.35 138.76098,22.43 138.76098,32.46 Z M127.54098,25.66 C126.18098,23.79 116.66098,24.64 113.94098,26.17 C111.90098,31.44 107.14098,38.58 111.05098,46.57 C116.66098,47.93 123.29098,46.23 126.35098,41.98 C129.92098,37.22 131.79098,31.1 127.54098,25.66 Z M255.00366,69.52 C255.34366,77.34 256.70366,89.07 254.15366,99.78 C253.98366,100.8 252.28366,100.46 251.26366,100.46 C248.71366,100.46 245.99366,97.23 244.97366,95.19 C244.63366,84.48 243.61366,69.86 243.61366,60 C243.78366,45.89 235.79366,40.11 243.27366,39.43 C247.52366,39.09 252.62366,53.54 252.96366,58.13 C252.96366,59.49 254.83366,66.46 255.00366,69.52 Z M231.37366,82.61 C233.41366,88.56 230.52366,95.87 222.87366,97.06 C216.41366,97.91 208.42366,93.83 202.47366,91.45 C201.11366,94.85 193.12366,108.11 190.91366,111.17 C187.51366,116.1 181.56366,116.44 177.65366,114.74 C177.82366,98.42 192.10366,75.64 196.69366,61.36 C199.41366,52.86 183.60366,54.9 177.14366,50.14 C172.04366,46.23 173.57366,38.58 175.10366,34.67 C197.20366,40.45 206.55366,43.51 211.48366,53.2 C214.88366,59.83 209.61366,72.07 205.70366,82.27 C220.15366,86.01 227.63366,84.99 231.37366,82.61 Z M312.93634,125.28 C316.16634,127.83 319.56634,126.64 323.47634,127.32 C331.46634,126.81 338.43634,124.26 341.15634,121.88 C350.67634,121.88 353.39634,128.85 353.22634,131.06 C352.37634,145 324.32634,144.66 312.59634,142.11 C308.68634,141.26 300.52634,132.25 300.52634,124.77 C300.52634,120.18 303.41634,115.42 307.49634,112.87 C309.70634,112.36 313.27634,110.32 315.14634,108.96 C319.39634,103.01 317.52634,99.61 319.22634,91.62 C308.51634,91.62 298.31634,97.23 287.94634,97.23 C281.82634,97.23 276.04634,89.07 277.57634,86.86 C283.52634,84.31 294.23634,81.76 301.03634,80.74 C319.05634,78.02 337.92634,76.66 343.87634,79.21 C345.57634,80.57 345.40634,84.14 343.53634,84.99 C338.09634,87.54 330.27634,88.05 326.70634,90.6 C327.72634,100.97 327.72634,110.83 323.64634,116.78 C319.90634,119.84 315.65634,114.57 311.74634,115.59 C310.89634,118.48 311.40634,123.24 312.93634,125.28 Z M316.84634,23.62 C317.18634,24.47 316.16634,27.36 313.95634,26.68 C310.72634,25.83 311.74634,26 303.92634,23.96 C302.22634,23.45 297.29634,19.03 294.91634,16.65 C291.00634,12.91 276.38634,5.94 285.22634,-0.01 C285.56634,-0.18 286.58634,-0.18 286.92634,0.16 C293.04634,4.41 304.43634,6.11 308.51634,12.06 C309.53634,13.42 316.16634,20.56 316.84634,23.62 Z M334.18634,67.14 C332.31634,68.67 328.57634,67.82 327.55634,68.16 C318.88634,70.37 300.01634,73.26 293.55634,67.48 C286.75634,61.19 292.53634,53.2 301.71634,46.23 C303.07634,45.38 307.66634,40.79 308.00634,38.41 C300.01634,35.35 286.75634,41.13 280.29634,36.2 C278.42634,34.84 278.76634,30.08 281.82634,27.87 C290.49634,27.19 302.22634,29.4 311.91634,31.95 C326.53634,35.69 322.96634,44.19 314.46634,50.82 C311.23634,53.37 306.81634,57.28 303.58634,60.17 C307.66634,62.21 320.75634,60.68 324.32634,60.17 C324.15634,56.43 317.18634,48.1 326.53634,48.44 C334.52634,54.05 336.56634,61.36 334.18634,67.14 Z" id="윤지훈" opacity="0.200000018"></path>
        </g>
    </g>
</svg>