<?xml version="1.0" encoding="utf-8"?>
<!-- Generator: Adobe Illustrator 19.1.0, SVG Export Plug-In . SVG Version: 6.00 Build 0)  -->
<!DOCTYPE svg PUBLIC "-//W3C//DTD SVG 1.1//EN" "http://www.w3.org/Graphics/SVG/1.1/DTD/svg11.dtd">
<svg version="1.1" id="Layer_1" xmlns="http://www.w3.org/2000/svg" xmlns:xlink="http://www.w3.org/1999/xlink" x="0px" y="0px"
	 viewBox="0 0 1920 1080" enable-background="new 0 0 1920 1080" xml:space="preserve">
<defs>
	<filter id="Adobe_OpacityMaskFilter" filterUnits="userSpaceOnUse" x="-11.3" y="584.9" width="1973.3" height="446.1">
		
			<feColorMatrix  type="matrix" values="-1 0 0 0 1  0 -1 0 0 1  0 0 -1 0 1  0 0 0 1 0" color-interpolation-filters="sRGB" result="source"/>
	</filter>
</defs>
<mask maskUnits="userSpaceOnUse" x="-11.3" y="584.9" width="1973.3" height="446.1" id="SVGID_2_">
	<g filter="url(#Adobe_OpacityMaskFilter)">
		<linearGradient id="SVGID_4_" gradientUnits="userSpaceOnUse" x1="925.2619" y1="951.5752" x2="925.2619" y2="736.9376">
			<stop  offset="0" style="stop-color:#FFFFFF"/>
			<stop  offset="1.683521e-02" style="stop-color:#F0F0F0"/>
			<stop  offset="7.001394e-02" style="stop-color:#C5C4C4"/>
			<stop  offset="0.1289" style="stop-color:#9E9D9D"/>
			<stop  offset="0.1923" style="stop-color:#7D7A7B"/>
			<stop  offset="0.2614" style="stop-color:#615E5F"/>
			<stop  offset="0.3383" style="stop-color:#4A4747"/>
			<stop  offset="0.4262" style="stop-color:#383536"/>
			<stop  offset="0.5319" style="stop-color:#2C2829"/>
			<stop  offset="0.6733" style="stop-color:#252122"/>
			<stop  offset="1" style="stop-color:#231F20"/>
		</linearGradient>
		<rect x="-310.9" y="564.6" fill="url(#SVGID_4_)" width="2472.2" height="624.9"/>
	</g>
</mask>
<g opacity="0.9" mask="url(#SVGID_2_)">
	<polygon fill="#345868" points="401.7,930 515.8,584.9 630,930 	"/>
	<polygon fill="#345868" points="-11.3,1031 102.8,685.9 217,1031 	"/>
	<polygon fill="#345868" points="75.7,993 189.8,647.9 304,993 	"/>
	<polygon fill="#345868" points="319.7,993 433.8,647.9 548,993 	"/>
	<polygon fill="#345868" points="473.7,1025 587.8,679.9 702,1025 	"/>
	<polygon fill="#345868" points="669.7,993 783.8,647.9 898,993 	"/>
	<polygon fill="#345868" points="897.7,993 1011.8,647.9 1126,993 	"/>
	<polygon fill="#345868" points="1022.7,1031 1136.8,685.9 1251,1031 	"/>
	<polygon fill="#345868" points="1270.7,972 1384.8,626.9 1499,972 	"/>
	<polygon fill="#345868" points="1361.7,1025 1475.8,679.9 1590,1025 	"/>
	<polygon fill="#345868" points="1505.7,956 1619.8,610.9 1734,956 	"/>
	<polygon fill="#345868" points="1733.7,993 1847.8,647.9 1962,993 	"/>
</g>
</svg>
