<?xml version="1.0" encoding="utf-8"?>
<!-- Generator: Adobe Illustrator 19.1.0, SVG Export Plug-In . SVG Version: 6.00 Build 0)  -->
<!DOCTYPE svg PUBLIC "-//W3C//DTD SVG 1.1//EN" "http://www.w3.org/Graphics/SVG/1.1/DTD/svg11.dtd">
<svg version="1.1" id="Layer_1" xmlns="http://www.w3.org/2000/svg" xmlns:xlink="http://www.w3.org/1999/xlink" x="0px" y="0px"
	 viewBox="0 0 1920 1080" enable-background="new 0 0 1920 1080" xml:space="preserve">
<defs>
	<filter id="Adobe_OpacityMaskFilter" filterUnits="userSpaceOnUse" x="-424" y="129.4" width="3061" height="654">
		
			<feColorMatrix  type="matrix" values="-1 0 0 0 1  0 -1 0 0 1  0 0 -1 0 1  0 0 0 1 0" color-interpolation-filters="sRGB" result="source"/>
	</filter>
</defs>
<mask maskUnits="userSpaceOnUse" x="-424" y="129.4" width="3061" height="654" id="SVGID_2_">
	<g filter="url(#Adobe_OpacityMaskFilter)">
		<linearGradient id="SVGID_4_" gradientUnits="userSpaceOnUse" x1="958.4439" y1="759.1079" x2="958.4439" y2="648.4055">
			<stop  offset="0" style="stop-color:#FFFFFF"/>
			<stop  offset="1" style="stop-color:#000000"/>
		</linearGradient>
		<rect x="-286.3" y="88.2" fill="url(#SVGID_4_)" stroke="#000000" stroke-miterlimit="10" width="2489.5" height="863.8"/>
	</g>
</mask>
<g mask="url(#SVGID_2_)">
	<g>
		<defs>
			<path id="SVGID_115_" d="M-424,608.9l264.2-299.6c12.4-14.1,34.5-13.4,46.1,1.3L85.4,563.7L479.1,139
				c12.4-13.4,33.9-12.7,45.3,1.6l302.7,374.9l158.1-173c12.2-13.4,33.4-12.9,45.1,0.9l205.4,244.3l217.7-320
				c11.9-17.4,37.5-17.5,49.5-0.2l210.3,304.3l165.5-185.2c12-13.4,33-13.3,44.9,0.2l160.6,182.3l223.5-278.5
				c12.1-15.1,35.2-14.9,47.1,0.4L2637,654.8v128.6H-424L-424,608.9"/>
		</defs>
		<clipPath id="SVGID_6_">
			<use xlink:href="#SVGID_115_"  overflow="visible"/>
		</clipPath>
		<path clip-path="url(#SVGID_6_)" fill="#515151" d="M2331.2,279.4c-8.7,0-17.4,3.7-23.4,11.2l-223.5,278.5l-160.6-182.3
			c-1.1-1.3-2.3-2.4-3.6-3.4V783H0.3V455.4l-114-144.8c-6-7.6-14.8-11.4-23.6-11.4c-8.2,0-16.5,3.4-22.5,10.2L-424,608.9l0,174.6
			h3061V654.8l-282.1-363.8C2348.9,283.3,2340,279.4,2331.2,279.4"/>
		
			<linearGradient id="SVGID_8_" gradientUnits="userSpaceOnUse" x1="2222" y1="-1029" x2="2223" y2="-1029" gradientTransform="matrix(3.054151e-08 -678.6992 -678.6992 -3.054151e-08 -697421.375 1508833)">
			<stop  offset="0" style="stop-color:#4388FF"/>
			<stop  offset="0.5993" style="stop-color:#564D89"/>
			<stop  offset="1" style="stop-color:#433D6B"/>
		</linearGradient>
		<path clip-path="url(#SVGID_6_)" fill="url(#SVGID_8_)" d="M501.1,129.4c-8,0-16,3.2-22,9.6L85.4,563.7L0.3,455.4V783H1920V383.4
			c-5.5-4.5-12.2-6.7-18.9-6.7c-8.2,0-16.4,3.3-22.4,10l-165.5,185.2L1503,267.5c-6-8.6-15.3-12.9-24.7-12.9
			c-9.4,0-18.9,4.4-24.8,13.1l-217.7,320l-205.4-244.3c-6-7.1-14.5-10.7-23-10.7c-8.1,0-16.2,3.2-22.1,9.8l-158.1,173L524.5,140.6
			C518.5,133.2,509.8,129.4,501.1,129.4"/>
	</g>
</g>
</svg>
