<?xml version="1.0" encoding="utf-8"?>
<!-- Generator: Adobe Illustrator 19.1.0, SVG Export Plug-In . SVG Version: 6.00 Build 0)  -->
<!DOCTYPE svg PUBLIC "-//W3C//DTD SVG 1.1//EN" "http://www.w3.org/Graphics/SVG/1.1/DTD/svg11.dtd">
<svg version="1.1" id="Layer_1" xmlns="http://www.w3.org/2000/svg" xmlns:xlink="http://www.w3.org/1999/xlink" x="0px" y="0px"
	 viewBox="0 0 1920 1080" enable-background="new 0 0 1920 1080" xml:space="preserve">
<defs>
	<filter id="Adobe_OpacityMaskFilter" filterUnits="userSpaceOnUse" x="-120.1" y="661" width="2264.2" height="298">
		
			<feColorMatrix  type="matrix" values="-1 0 0 0 1  0 -1 0 0 1  0 0 -1 0 1  0 0 0 1 0" color-interpolation-filters="sRGB" result="source"/>
	</filter>
</defs>
<mask maskUnits="userSpaceOnUse" x="-120.1" y="661" width="2264.2" height="298" id="SVGID_2_">
	<g filter="url(#Adobe_OpacityMaskFilter)">
		<linearGradient id="SVGID_4_" gradientUnits="userSpaceOnUse" x1="1103.262" y1="898.6138" x2="1103.262" y2="698.0352">
			<stop  offset="0" style="stop-color:#FFFFFF"/>
			<stop  offset="3.172785e-02" style="stop-color:#EDEDED"/>
			<stop  offset="0.125" style="stop-color:#BEBDBD"/>
			<stop  offset="0.2237" style="stop-color:#959393"/>
			<stop  offset="0.3262" style="stop-color:#716F70"/>
			<stop  offset="0.4335" style="stop-color:#555253"/>
			<stop  offset="0.5472" style="stop-color:#3F3B3C"/>
			<stop  offset="0.6704" style="stop-color:#2F2B2C"/>
			<stop  offset="0.8097" style="stop-color:#262223"/>
			<stop  offset="1" style="stop-color:#231F20"/>
		</linearGradient>
		<rect x="-132.9" y="540" fill="url(#SVGID_4_)" width="2472.2" height="583.9"/>
	</g>
</mask>
<g opacity="0.8" mask="url(#SVGID_2_)">
	<g>
		<polygon fill="#345868" points="-120.1,915 -36,661 48,915 		"/>
		<polygon fill="#345868" points="-20.1,944 64,690 148,944 		"/>
		<polygon fill="#345868" points="75,915 159.1,661 243.1,915 		"/>
		<polygon fill="#345868" points="765.9,936 849.9,682 933.9,936 		"/>
		<polygon fill="#345868" points="260.2,936 344.3,682 428.3,936 		"/>
		<polygon fill="#345868" points="361.9,926 446,672 530,926 		"/>
		<polygon fill="#345868" points="554.8,915 638.9,661 722.9,915 		"/>
		<polygon fill="#345868" points="862.6,915 946.6,661 1030.7,915 		"/>
	</g>
	<g>
		<polygon fill="#345868" points="993.4,930 1077.4,676 1161.5,930 		"/>
		<polygon fill="#345868" points="1093.4,959 1177.5,705 1261.5,959 		"/>
		<polygon fill="#345868" points="1188.5,930 1272.5,676 1356.6,930 		"/>
		<polygon fill="#345868" points="1879.3,951 1963.4,697 2047.4,951 		"/>
		<polygon fill="#345868" points="1373.7,951 1457.7,697 1541.8,951 		"/>
		<polygon fill="#345868" points="1475.4,941 1559.4,687 1643.5,941 		"/>
		<polygon fill="#345868" points="1668.3,930 1752.3,676 1836.4,930 		"/>
	</g>
</g>
</svg>
