<?xml version="1.0" encoding="UTF-8"?>
<svg width="127px" height="135px" viewBox="0 0 127 135" version="1.1" xmlns="http://www.w3.org/2000/svg" xmlns:xlink="http://www.w3.org/1999/xlink">
    <!-- Generator: Sketch 44.1 (41455) - http://www.bohemiancoding.com/sketch -->
    <title>2 copy</title>
    <desc>Created with Sketch.</desc>
    <defs></defs>
    <g id="Page-1" stroke="none" stroke-width="1" fill="none" fill-rule="evenodd" opacity="0.5">
        <path d="M86.5898438,0.309570312 C49.6025391,0.309570312 23.6015625,24.2353516 23.6015625,46.2080078 C23.6015625,60.2460938 34.0996094,63.2978516 42.4003906,63.2978516 C50.5791016,63.2978516 60.8330078,60.0019531 70.1103516,51.2128906 L67.0585938,47.7949219 C59.3681641,54.5087891 53.3867188,58.0488281 43.9873047,58.0488281 C33.6113281,58.0488281 29.5830078,54.0205078 29.5830078,45.9638672 C29.5830078,26.7988281 52.7763672,7.26757813 72.5517578,7.26757813 C84.3925781,7.26757813 91.5947266,14.2255859 91.5947266,27.6533203 C91.5947266,68.7910156 22.625,111.149414 2.1171875,127.750977 L0.896484375,133 C10.1738281,129.09375 16.6435547,126.896484 27.3857422,126.896484 C48.015625,126.896484 62.4199219,134.464844 79.7539062,134.464844 C107.341797,134.464844 118.572266,117.619141 118.572266,101.505859 C118.572266,91.7402344 114.299805,85.2705078 104.65625,80.1435547 L101.848633,83.4394531 C107.708008,86.3691406 111.125977,90.3974609 111.125977,95.7685547 C111.125977,103.703125 102.458984,107.731445 89.6416016,107.731445 C74.0166016,107.731445 56.0722656,100.773438 43.8652344,100.773438 C67.3027344,83.5615234 126.628906,58.0488281 126.628906,26.5546875 C126.628906,10.3193359 111.248047,0.309570312 86.5898438,0.309570312 Z" id="2-copy" fill="#4A4A4A"></path>
    </g>
</svg>