<?xml version="1.0" encoding="UTF-8"?>
<svg width="141px" height="172px" viewBox="0 0 141 172" version="1.1" xmlns="http://www.w3.org/2000/svg" xmlns:xlink="http://www.w3.org/1999/xlink">
    <!-- Generator: Sketch 44.1 (41455) - http://www.bohemiancoding.com/sketch -->
    <title>3 copy</title>
    <desc>Created with Sketch.</desc>
    <defs></defs>
    <g id="Page-1" stroke="none" stroke-width="1" fill="none" fill-rule="evenodd" opacity="0.5">
        <path d="M99.3925781,0.943359375 C66.1894531,0.943359375 40.3105469,21.2070312 40.3105469,39.3955078 C40.3105469,53.4335938 50.8085937,56.4853516 58.9873047,56.4853516 C64.96875,56.4853516 72.0488281,54.8984375 79.0068359,51.2363281 L76.1992187,47.4521484 C71.5605469,49.8935547 66.7998047,51.2363281 60.6962891,51.2363281 C50.1982422,51.2363281 46.2919922,47.2080078 46.2919922,39.1513672 C46.2919922,24.5029297 65.8232422,9.48828125 83.6455078,9.48828125 C98.5380859,9.48828125 106.960937,17.9111328 106.960937,31.9492188 C106.960937,50.3818359 93.0449219,64.2978516 76.0771484,71.5 C74.3681641,71.3779297 72.78125,71.3779297 71.3164062,71.3779297 C64.96875,71.3779297 60.0859375,72.3544922 59.3535156,76.0166016 C59.2314453,76.5048828 59.109375,76.8710938 59.109375,77.2373047 C59.109375,79.1904297 61.3066406,79.8007812 63.6259766,79.8007812 C67.8984375,79.8007812 72.6591797,77.7255859 78.1523437,75.5283203 C87.7958984,76.2607422 93.2890625,85.0498047 93.2890625,98.2333984 C93.2890625,142.056641 40.7988281,164.761719 1.61425781,167.203125 L0.393554688,171.719727 C51.4189453,170.987305 130.154297,145.230469 130.154297,102.261719 C130.154297,80.7773438 109.402344,71.9882812 82.546875,71.5 C107.81543,65.640625 140.408203,49.5273437 140.408203,25.9677734 C140.408203,10.5869141 124.416992,0.943359375 99.3925781,0.943359375 Z" id="3-copy" fill="#4A4A4A"></path>
    </g>
</svg>